#tb 0: 1/44100
#media_type 0: audio
#codec_id 0: pcm_s16le
#sample_rate 0: 44100
#channel_layout 0: 4
#channel_layout_name 0: mono
0,          0,          0,     1152,     2304, 0x907cb7fa
0,       1152,       1152,     1152,     2304, 0xb8dc7525
0,       2304,       2304,     1152,     2304, 0x3e7d6905
0,       3456,       3456,     1152,     2304, 0xef47877b
0,       4608,       4608,     1152,     2304, 0xfe916b7e
0,       5760,       5760,     1152,     2304, 0xe3d08cde
0,       6912,       6912,     1152,     2304, 0xff7f86cf
0,       8064,       8064,     1152,     2304, 0x843e6f95
0,       9216,       9216,     1152,     2304, 0x81577c26
0,      10368,      10368,     1152,     2304, 0x04a085d5
0,      11520,      11520,     1152,     2304, 0x1c5a76f5
0,      12672,      12672,     1152,     2304, 0x4ee78623
0,      13824,      13824,     1152,     2304, 0x8ec861dc
0,      14976,      14976,     1152,     2304, 0x0ca179d8
0,      16128,      16128,     1152,     2304, 0xc6da750f
0,      17280,      17280,     1152,     2304, 0xf6bf79b5
0,      18432,      18432,     1152,     2304, 0x97b88a43
0,      19584,      19584,     1152,     2304, 0xf13c7b9c
0,      20736,      20736,     1152,     2304, 0xdfba83af
0,      21888,      21888,     1152,     2304, 0xc9467d4b
0,      23040,      23040,     1152,     2304, 0xbbb58e2b
0,      24192,      24192,     1152,     2304, 0x3a1078ea
0,      25344,      25344,     1152,     2304, 0xe9587a5c
0,      26496,      26496,     1152,     2304, 0xef5a8039
0,      27648,      27648,     1152,     2304, 0x9d5f782f
0,      28800,      28800,     1152,     2304, 0x1a548291
0,      29952,      29952,     1152,     2304, 0x07517701
0,      31104,      31104,     1152,     2304, 0x78127d6e
0,      32256,      32256,     1152,     2304, 0x62e2788a
0,      33408,      33408,     1152,     2304, 0x29397ad9
0,      34560,      34560,     1152,     2304, 0x45da82d6
0,      35712,      35712,     1152,     2304, 0x8ed66e51
0,      36864,      36864,     1152,     2304, 0x660775cd
0,      38016,      38016,     1152,     2304, 0x802c767a
0,      39168,      39168,     1152,     2304, 0xcc055840
0,      40320,      40320,     1152,     2304, 0x701b7eaf
0,      41472,      41472,     1152,     2304, 0x8290749f
0,      42624,      42624,     1152,     2304, 0x2c7b7d30
0,      43776,      43776,     1152,     2304, 0xe4f17743
0,      44928,      44928,     1152,     2304, 0x0e747d6e
0,      46080,      46080,     1152,     2304, 0xbe7775a0
0,      47232,      47232,     1152,     2304, 0xcf797673
0,      48384,      48384,     1152,     2304, 0x29cb7800
0,      49536,      49536,     1152,     2304, 0xfc947890
0,      50688,      50688,     1152,     2304, 0x62757fc6
0,      51840,      51840,     1152,     2304, 0x098876d0
0,      52992,      52992,     1152,     2304, 0xa9567ee2
0,      54144,      54144,     1152,     2304, 0xe3bb9173
0,      55296,      55296,     1152,     2304, 0xcc2d6dee
0,      56448,      56448,     1152,     2304, 0xe94591ab
0,      57600,      57600,     1152,     2304, 0x5c7588de
0,      58752,      58752,     1152,     2304, 0xfd83643c
0,      59904,      59904,     1152,     2304, 0x528177f1
0,      61056,      61056,     1152,     2304, 0x65d08474
0,      62208,      62208,     1152,     2304, 0x738d765b
0,      63360,      63360,     1152,     2304, 0xdd3d810e
0,      64512,      64512,     1152,     2304, 0xef4f90d3
0,      65664,      65664,     1152,     2304, 0x61e28d43
0,      66816,      66816,     1152,     2304, 0x9a11796b
0,      67968,      67968,     1152,     2304, 0x96c97dcd
0,      69120,      69120,     1152,     2304, 0xa8fe8621
0,      70272,      70272,     1152,     2304, 0x499b7d38
0,      71424,      71424,     1152,     2304, 0xfcb078a9
0,      72576,      72576,     1152,     2304, 0x40d78651
0,      73728,      73728,     1152,     2304, 0xa4af7234
0,      74880,      74880,     1152,     2304, 0x6831870a
0,      76032,      76032,     1152,     2304, 0x030e7b9d
0,      77184,      77184,     1152,     2304, 0x445a75b6
0,      78336,      78336,     1152,     2304, 0x09857389
0,      79488,      79488,     1152,     2304, 0x0d018866
0,      80640,      80640,     1152,     2304, 0x2afe810a
0,      81792,      81792,     1152,     2304, 0x0bcf7c43
0,      82944,      82944,     1152,     2304, 0x13737c12
0,      84096,      84096,     1152,     2304, 0x716c7bba
0,      85248,      85248,     1152,     2304, 0xb801823b
0,      86400,      86400,     1152,     2304, 0x0fd573ee
0,      87552,      87552,     1152,     2304, 0xe1ab879c
0,      88704,      88704,     1152,     2304, 0x49e6764f
0,      89856,      89856,     1152,     2304, 0xd5f26ddc
0,      91008,      91008,     1152,     2304, 0x076775ff
0,      92160,      92160,     1152,     2304, 0xfbb86fce
0,      93312,      93312,     1152,     2304, 0x20c56858
0,      94464,      94464,     1152,     2304, 0x043e6891
0,      95616,      95616,     1152,     2304, 0x59648729
0,      96768,      96768,     1152,     2304, 0xd4907a63
0,      97920,      97920,     1152,     2304, 0xd0208a4c
0,      99072,      99072,     1152,     2304, 0xce968383
0,     100224,     100224,     1152,     2304, 0x3cfc7cd1
0,     101376,     101376,     1152,     2304, 0x628a7bf5
0,     102528,     102528,     1152,     2304, 0x9cfe8a4f
0,     103680,     103680,     1152,     2304, 0xdf6f7c6d
0,     104832,     104832,     1152,     2304, 0x6cf6882a
0,     105984,     105984,     1152,     2304, 0x099773a3
0,     107136,     107136,     1152,     2304, 0x4a1c7649
0,     108288,     108288,     1152,     2304, 0x31ea71cb
0,     109440,     109440,     1152,     2304, 0xed127ed9
0,     110592,     110592,     1152,     2304, 0x5b156954
0,     111744,     111744,     1152,     2304, 0xdd638532
0,     112896,     112896,     1152,     2304, 0xf1a271f2
0,     114048,     114048,     1152,     2304, 0x779184d7
0,     115200,     115200,     1152,     2304, 0x49a88aa8
0,     116352,     116352,     1152,     2304, 0xa11b7c90
0,     117504,     117504,     1152,     2304, 0xbf488274
0,     118656,     118656,     1152,     2304, 0x002f79a8
0,     119808,     119808,     1152,     2304, 0x0ed97e2f
0,     120960,     120960,     1152,     2304, 0x7845878f
0,     122112,     122112,     1152,     2304, 0x46d777dc
0,     123264,     123264,     1152,     2304, 0x8d0179e3
0,     124416,     124416,     1152,     2304, 0x38917f9f
0,     125568,     125568,     1152,     2304, 0x449876e7
0,     126720,     126720,     1152,     2304, 0x001a8769
0,     127872,     127872,     1152,     2304, 0x06c1826b
0,     129024,     129024,     1152,     2304, 0x41b68047
0,     130176,     130176,     1152,     2304, 0xeb9782c6
0,     131328,     131328,     1152,     2304, 0x7cd9719c
0,     132480,     132480,     1152,     2304, 0x3a4a767c
0,     133632,     133632,     1152,     2304, 0x7f887e81
0,     134784,     134784,     1152,     2304, 0xf75d714b
0,     135936,     135936,     1152,     2304, 0x33b57e9f
0,     137088,     137088,     1152,     2304, 0xc732749e
0,     138240,     138240,     1152,     2304, 0x386f7e1a
0,     139392,     139392,     1152,     2304, 0x6b9c767d
0,     140544,     140544,     1152,     2304, 0x701c83e5
0,     141696,     141696,     1152,     2304, 0xb92571e1
0,     142848,     142848,     1152,     2304, 0x833a84bc
0,     144000,     144000,     1152,     2304, 0x1b6984e0
0,     145152,     145152,     1152,     2304, 0x1b2474ba
0,     146304,     146304,     1152,     2304, 0xc22775a6
0,     147456,     147456,     1152,     2304, 0x3e8f7972
0,     148608,     148608,     1152,     2304, 0x17a28a65
0,     149760,     149760,     1152,     2304, 0x9b6178a4
0,     150912,     150912,     1152,     2304, 0x5d707873
0,     152064,     152064,     1152,     2304, 0x68e2645a
0,     153216,     153216,     1152,     2304, 0x1e377d28
0,     154368,     154368,     1152,     2304, 0x54b384be
0,     155520,     155520,     1152,     2304, 0x0617808c
0,     156672,     156672,     1152,     2304, 0xbc2b8a6c
0,     157824,     157824,     1152,     2304, 0x7ced7180
0,     158976,     158976,     1152,     2304, 0xf22180ab
0,     160128,     160128,     1152,     2304, 0xf13682c9
0,     161280,     161280,     1152,     2304, 0x7eff87fd
0,     162432,     162432,     1152,     2304, 0x5a0b5cec
0,     163584,     163584,     1152,     2304, 0x57c18906
0,     164736,     164736,     1152,     2304, 0xb55a6a16
0,     165888,     165888,     1152,     2304, 0xf2608371
0,     167040,     167040,     1152,     2304, 0x36df7576
0,     168192,     168192,     1152,     2304, 0xdb106fb4
0,     169344,     169344,     1152,     2304, 0x7e4f85d0
0,     170496,     170496,     1152,     2304, 0xe3ee78ab
0,     171648,     171648,     1152,     2304, 0xd36b7dc7
0,     172800,     172800,     1152,     2304, 0xadab7c5c
0,     173952,     173952,     1152,     2304, 0x70786f26
0,     175104,     175104,     1152,     2304, 0xcd5d717e
0,     176256,     176256,     1152,     2304, 0xc1a96f9a
0,     177408,     177408,     1152,     2304, 0xad777887
0,     178560,     178560,     1152,     2304, 0x98277c16
0,     179712,     179712,     1152,     2304, 0x868882c5
0,     180864,     180864,     1152,     2304, 0xc48092b9
0,     182016,     182016,     1152,     2304, 0x230069da
0,     183168,     183168,     1152,     2304, 0x14147ad6
0,     184320,     184320,     1152,     2304, 0xc9007172
0,     185472,     185472,     1152,     2304, 0x85d67bcc
0,     186624,     186624,     1152,     2304, 0x22418bab
0,     187776,     187776,     1152,     2304, 0xe53c8b71
0,     188928,     188928,     1152,     2304, 0x5a1a9053
0,     190080,     190080,     1152,     2304, 0x9cd179af
0,     191232,     191232,     1152,     2304, 0xbb3c7d72
0,     192384,     192384,     1152,     2304, 0x477a8677
0,     193536,     193536,     1152,     2304, 0xe3337834
0,     194688,     194688,     1152,     2304, 0x1cb56d77
0,     195840,     195840,     1152,     2304, 0xe89d6dac
0,     196992,     196992,     1152,     2304, 0xd468827e
0,     198144,     198144,     1152,     2304, 0xebc46b87
0,     199296,     199296,     1152,     2304, 0x5fbb78d2
0,     200448,     200448,     1152,     2304, 0xa1b483d6
0,     201600,     201600,     1152,     2304, 0x6fec7cab
0,     202752,     202752,     1152,     2304, 0xd86d6f6c
0,     203904,     203904,     1152,     2304, 0x8c2c7d51
0,     205056,     205056,     1152,     2304, 0xe8377cd7
0,     206208,     206208,     1152,     2304, 0xb57071b4
0,     207360,     207360,     1152,     2304, 0xc35c71fd
0,     208512,     208512,     1152,     2304, 0x789079e9
0,     209664,     209664,     1152,     2304, 0x413b710e
0,     210816,     210816,     1152,     2304, 0x82678332
0,     211968,     211968,     1152,     2304, 0xe1576e75
0,     213120,     213120,     1152,     2304, 0x7c0b7ad6
0,     214272,     214272,     1152,     2304, 0xc6b6786d
0,     215424,     215424,     1152,     2304, 0x736f7b89
0,     216576,     216576,     1152,     2304, 0x0ded72f1
0,     217728,     217728,     1152,     2304, 0xcb877a3c
0,     218880,     218880,     1152,     2304, 0x7c497d40
0,     220032,     220032,     1152,     2304, 0xaefc798c
0,     221184,     221184,     1152,     2304, 0x4cce748c
0,     222336,     222336,     1152,     2304, 0xaa187fbe
0,     223488,     223488,     1152,     2304, 0x1aa77db9
0,     224640,     224640,     1152,     2304, 0x9e0074b8
0,     225792,     225792,     1152,     2304, 0x74ee822b
0,     226944,     226944,     1152,     2304, 0x975c6ff6
0,     228096,     228096,     1152,     2304, 0xe1847bb4
0,     229248,     229248,     1152,     2304, 0xe0828777
0,     230400,     230400,     1152,     2304, 0xf4027205
0,     231552,     231552,     1152,     2304, 0x535e7a20
0,     232704,     232704,     1152,     2304, 0x5bd88404
0,     233856,     233856,     1152,     2304, 0xf29478b1
0,     235008,     235008,     1152,     2304, 0x9b7c7d88
0,     236160,     236160,     1152,     2304, 0xaeb07335
0,     237312,     237312,     1152,     2304, 0xbef06e08
0,     238464,     238464,     1152,     2304, 0x795f7b8c
0,     239616,     239616,     1152,     2304, 0x435a674d
0,     240768,     240768,     1152,     2304, 0xd8ee7a09
0,     241920,     241920,     1152,     2304, 0x9059812e
0,     243072,     243072,     1152,     2304, 0x7481744a
0,     244224,     244224,     1152,     2304, 0xdff27475
0,     245376,     245376,     1152,     2304, 0xb17783ab
0,     246528,     246528,     1152,     2304, 0x42e9706b
0,     247680,     247680,     1152,     2304, 0x9f0d86b4
0,     248832,     248832,     1152,     2304, 0x2963955f
0,     249984,     249984,     1152,     2304, 0x059a6957
0,     251136,     251136,     1152,     2304, 0x85948206
0,     252288,     252288,     1152,     2304, 0x185e8400
0,     253440,     253440,     1152,     2304, 0xe98e70df
0,     254592,     254592,     1152,     2304, 0x69057b27
0,     255744,     255744,     1152,     2304, 0x49e26f21
0,     256896,     256896,     1152,     2304, 0xb0867da5
0,     258048,     258048,     1152,     2304, 0x785980ff
0,     259200,     259200,     1152,     2304, 0xf4b774be
0,     260352,     260352,     1152,     2304, 0x63897e8c
0,     261504,     261504,     1152,     2304, 0x248b89af
0,     262656,     262656,     1152,     2304, 0xd3627c4a
0,     263808,     263808,     1152,     2304, 0x5a4d9349
0,     264960,     264960,     1152,     2304, 0xe2ce7c4c
0,     266112,     266112,     1152,     2304, 0x321f6c0b
0,     267264,     267264,     1152,     2304, 0x51ac74e0
0,     268416,     268416,     1152,     2304, 0x8efa91ba
0,     269568,     269568,     1152,     2304, 0x8b4b784c
0,     270720,     270720,     1152,     2304, 0xe9e4879e
0,     271872,     271872,     1152,     2304, 0x8dc28081
0,     273024,     273024,     1152,     2304, 0x44b477b0
0,     274176,     274176,     1152,     2304, 0xf7b67084
0,     275328,     275328,     1152,     2304, 0x4b198c17
0,     276480,     276480,     1152,     2304, 0x9c947194
0,     277632,     277632,     1152,     2304, 0x6eaa7f15
0,     278784,     278784,     1152,     2304, 0x119f7c1d
0,     279936,     279936,     1152,     2304, 0x157b7f43
0,     281088,     281088,     1152,     2304, 0xcd2e7acc
0,     282240,     282240,     1152,     2304, 0x97597247
0,     283392,     283392,     1152,     2304, 0x7ba06acb
0,     284544,     284544,     1152,     2304, 0x233c7995
0,     285696,     285696,     1152,     2304, 0x08e28587
0,     286848,     286848,     1152,     2304, 0x92be84b5
0,     288000,     288000,     1152,     2304, 0xbb857d43
0,     289152,     289152,     1152,     2304, 0x168e7c74
0,     290304,     290304,     1152,     2304, 0xac5465d9
0,     291456,     291456,     1152,     2304, 0x18f58831
0,     292608,     292608,     1152,     2304, 0x19b48196
0,     293760,     293760,     1152,     2304, 0x20297653
0,     294912,     294912,     1152,     2304, 0x93397a82
0,     296064,     296064,     1152,     2304, 0x65ea7deb
0,     297216,     297216,     1152,     2304, 0xd7316e20
0,     298368,     298368,     1152,     2304, 0x94107f2b
0,     299520,     299520,     1152,     2304, 0xec3b7dc6
0,     300672,     300672,     1152,     2304, 0x2d3783aa
0,     301824,     301824,     1152,     2304, 0x07e47340
0,     302976,     302976,     1152,     2304, 0xbc117893
0,     304128,     304128,     1152,     2304, 0x8bd97851
0,     305280,     305280,     1152,     2304, 0xc27376a9
0,     306432,     306432,     1152,     2304, 0x30d88c83
0,     307584,     307584,     1152,     2304, 0x19c2704c
0,     308736,     308736,     1152,     2304, 0x093b7b6e
0,     309888,     309888,     1152,     2304, 0x221a7349
0,     311040,     311040,     1152,     2304, 0xa4fd82cd
0,     312192,     312192,     1152,     2304, 0x762e6bc9
0,     313344,     313344,     1152,     2304, 0x270075d4
0,     314496,     314496,     1152,     2304, 0xa5f27b90
0,     315648,     315648,     1152,     2304, 0xf72e7edc
0,     316800,     316800,     1152,     2304, 0x42178486
0,     317952,     317952,     1152,     2304, 0x5f7978e8
0,     319104,     319104,     1152,     2304, 0x5d7c6703
0,     320256,     320256,     1152,     2304, 0x2c4483d5
0,     321408,     321408,     1152,     2304, 0x31bd951d
0,     322560,     322560,     1152,     2304, 0x99487af0
0,     323712,     323712,     1152,     2304, 0x0bd27ee7
0,     324864,     324864,     1152,     2304, 0xc3e07ac4
0,     326016,     326016,     1152,     2304, 0x98a16ba7
0,     327168,     327168,     1152,     2304, 0xd7a5747b
0,     328320,     328320,     1152,     2304, 0x96fb811c
0,     329472,     329472,     1152,     2304, 0x7cee8109
0,     330624,     330624,     1152,     2304, 0x52b18ba2
0,     331776,     331776,     1152,     2304, 0x33be8861
0,     332928,     332928,     1152,     2304, 0xf41282a0
0,     334080,     334080,     1152,     2304, 0xb4268993
0,     335232,     335232,     1152,     2304, 0x52126a1c
0,     336384,     336384,     1152,     2304, 0x050b6f7a
0,     337536,     337536,     1152,     2304, 0x67a26fc3
0,     338688,     338688,     1152,     2304, 0x966c7cf2
0,     339840,     339840,     1152,     2304, 0x22097750
0,     340992,     340992,     1152,     2304, 0xfbb0796c
0,     342144,     342144,     1152,     2304, 0xbd508964
0,     343296,     343296,     1152,     2304, 0xc24478d8
0,     344448,     344448,     1152,     2304, 0x3913769d
0,     345600,     345600,     1152,     2304, 0x8aab872f
0,     346752,     346752,     1152,     2304, 0x7cb4822f
0,     347904,     347904,     1152,     2304, 0xea318144
0,     349056,     349056,     1152,     2304, 0xaf0f86d2
0,     350208,     350208,     1152,     2304, 0x24f27598
0,     351360,     351360,     1152,     2304, 0xd76f6d40
0,     352512,     352512,     1152,     2304, 0x085071a7
0,     353664,     353664,     1152,     2304, 0x1d11704c
0,     354816,     354816,     1152,     2304, 0x21517cbd
0,     355968,     355968,     1152,     2304, 0xcdca8d32
0,     357120,     357120,     1152,     2304, 0x71c18433
0,     358272,     358272,     1152,     2304, 0xd39d7d81
0,     359424,     359424,     1152,     2304, 0x7a0d7a43
0,     360576,     360576,     1152,     2304, 0x007c8884
0,     361728,     361728,     1152,     2304, 0x403282d0
0,     362880,     362880,     1152,     2304, 0xe3737214
0,     364032,     364032,     1152,     2304, 0xaf906f47
0,     365184,     365184,     1152,     2304, 0x54f57b3b
0,     366336,     366336,     1152,     2304, 0x29be7791
0,     367488,     367488,     1152,     2304, 0xe3c663d5
0,     368640,     368640,     1152,     2304, 0xd7258238
0,     369792,     369792,     1152,     2304, 0x3719820d
0,     370944,     370944,     1152,     2304, 0xbe04814f
0,     372096,     372096,     1152,     2304, 0x556c815e
0,     373248,     373248,     1152,     2304, 0xb2447e10
0,     374400,     374400,     1152,     2304, 0x7c16867c
0,     375552,     375552,     1152,     2304, 0x6a7b78ed
0,     376704,     376704,     1152,     2304, 0x5d307b81
0,     377856,     377856,     1152,     2304, 0xaab680d3
0,     379008,     379008,     1152,     2304, 0xb5d37a23
0,     380160,     380160,     1152,     2304, 0x7f7d6f76
0,     381312,     381312,     1152,     2304, 0x317a8296
0,     382464,     382464,     1152,     2304, 0x8a987b3d
0,     383616,     383616,     1152,     2304, 0x4f317a27
0,     384768,     384768,     1152,     2304, 0xfc65852f
0,     385920,     385920,     1152,     2304, 0x40527719
0,     387072,     387072,     1152,     2304, 0x84988e13
0,     388224,     388224,     1152,     2304, 0x318b6ddc
0,     389376,     389376,     1152,     2304, 0x94cf7939
0,     390528,     390528,     1152,     2304, 0x6f22819d
0,     391680,     391680,     1152,     2304, 0xa7dd80a9
0,     392832,     392832,     1152,     2304, 0x1c7968fa
0,     393984,     393984,     1152,     2304, 0xd9937bae
0,     395136,     395136,     1152,     2304, 0xf7137cf9
0,     396288,     396288,     1152,     2304, 0xeadb84b5
0,     397440,     397440,     1152,     2304, 0x9a2390ac
0,     398592,     398592,     1152,     2304, 0xdb6a73f6
0,     399744,     399744,     1152,     2304, 0x69e07507
0,     400896,     400896,     1152,     2304, 0xbc8478b2
0,     402048,     402048,     1152,     2304, 0x32cf8638
0,     403200,     403200,     1152,     2304, 0x2b8d755a
0,     404352,     404352,     1152,     2304, 0x52e05bd2
0,     405504,     405504,     1152,     2304, 0x2aed8c49
0,     406656,     406656,     1152,     2304, 0x587a896e
0,     407808,     407808,     1152,     2304, 0x6dd87dee
0,     408960,     408960,     1152,     2304, 0xd2858338
0,     410112,     410112,     1152,     2304, 0xd90f7842
0,     411264,     411264,     1152,     2304, 0xd6fb6d4a
0,     412416,     412416,     1152,     2304, 0x85498aea
0,     413568,     413568,     1152,     2304, 0x18597790
0,     414720,     414720,     1152,     2304, 0x3cd78fea
0,     415872,     415872,     1152,     2304, 0x94377fbc
0,     417024,     417024,     1152,     2304, 0xf9db73f5
0,     418176,     418176,     1152,     2304, 0x14fb6fca
0,     419328,     419328,     1152,     2304, 0xe9d17d69
0,     420480,     420480,     1152,     2304, 0xdeb57286
0,     421632,     421632,     1152,     2304, 0xa5d37e17
0,     422784,     422784,     1152,     2304, 0xcf6882fb
0,     423936,     423936,     1152,     2304, 0x31758066
0,     425088,     425088,     1152,     2304, 0x6b4d8175
0,     426240,     426240,     1152,     2304, 0x2a3d7f8e
0,     427392,     427392,     1152,     2304, 0xc066743b
0,     428544,     428544,     1152,     2304, 0xcab88146
0,     429696,     429696,     1152,     2304, 0x2b4c6e13
0,     430848,     430848,     1152,     2304, 0x00b36b6f
0,     432000,     432000,     1152,     2304, 0x664a88d3
0,     433152,     433152,     1152,     2304, 0x18a66f76
0,     434304,     434304,     1152,     2304, 0x4f828a8b
0,     435456,     435456,     1152,     2304, 0x9cc7728e
0,     436608,     436608,     1152,     2304, 0xbe357936
0,     437760,     437760,     1152,     2304, 0x19878f8d
0,     438912,     438912,     1152,     2304, 0x227b7c71
0,     440064,     440064,     1152,     2304, 0xf7c879ec
0,     441216,     441216,     1152,     2304, 0x0bca7b50
0,     442368,     442368,     1152,     2304, 0xe4398304
0,     443520,     443520,     1152,     2304, 0xf5da75c7
0,     444672,     444672,     1152,     2304, 0x9f9070a3
0,     445824,     445824,     1152,     2304, 0x789076f6
0,     446976,     446976,     1152,     2304, 0x362977cc
0,     448128,     448128,     1152,     2304, 0x4d0a8928
0,     449280,     449280,     1152,     2304, 0x1bb767ec
0,     450432,     450432,     1152,     2304, 0xbe727fa5
0,     451584,     451584,     1152,     2304, 0x27f38347
0,     452736,     452736,     1152,     2304, 0x0a3c8783
0,     453888,     453888,     1152,     2304, 0x8249639c
0,     455040,     455040,     1152,     2304, 0x3b076f69
0,     456192,     456192,     1152,     2304, 0xd9597ee3
0,     457344,     457344,     1152,     2304, 0x026e7fad
0,     458496,     458496,     1152,     2304, 0xbd7a6de4
0,     459648,     459648,     1152,     2304, 0x7d718a4d
0,     460800,     460800,     1152,     2304, 0x1f5e83b4
0,     461952,     461952,     1152,     2304, 0x597d7755
0,     463104,     463104,     1152,     2304, 0x3fb080bd
0,     464256,     464256,     1152,     2304, 0xdcbd7b16
0,     465408,     465408,     1152,     2304, 0x5c48865f
0,     466560,     466560,     1152,     2304, 0xcda37ae8
0,     467712,     467712,     1152,     2304, 0x4810796d
0,     468864,     468864,     1152,     2304, 0x34317fd0
0,     470016,     470016,     1152,     2304, 0x5c0e7456
0,     471168,     471168,     1152,     2304, 0x44d78040
0,     472320,     472320,     1152,     2304, 0x88587882
0,     473472,     473472,     1152,     2304, 0x77687d5e
0,     474624,     474624,     1152,     2304, 0x116d68bb
0,     475776,     475776,     1152,     2304, 0x3e5b6f60
0,     476928,     476928,     1152,     2304, 0x64ea783c
0,     478080,     478080,     1152,     2304, 0x23547f7d
0,     479232,     479232,     1152,     2304, 0x2eee7892
0,     480384,     480384,     1152,     2304, 0xfb837cba
0,     481536,     481536,     1152,     2304, 0x86518209
0,     482688,     482688,     1152,     2304, 0x672f7bba
0,     483840,     483840,     1152,     2304, 0x6ab583fb
0,     484992,     484992,     1152,     2304, 0xc1297428
0,     486144,     486144,     1152,     2304, 0x164e7717
0,     487296,     487296,     1152,     2304, 0xb754976d
0,     488448,     488448,     1152,     2304, 0xb99d81b2
0,     489600,     489600,     1152,     2304, 0x79046fd6
0,     490752,     490752,     1152,     2304, 0x9a3f8426
0,     491904,     491904,     1152,     2304, 0x896371f5
0,     493056,     493056,     1152,     2304, 0x63d1799f
0,     494208,     494208,     1152,     2304, 0x4842844e
0,     495360,     495360,     1152,     2304, 0x850e8372
0,     496512,     496512,     1152,     2304, 0x85d07022
0,     497664,     497664,     1152,     2304, 0x9e6683d1
0,     498816,     498816,     1152,     2304, 0x301b8981
0,     499968,     499968,     1152,     2304, 0x1f1e98c5
0,     501120,     501120,     1152,     2304, 0xc8797b03
0,     502272,     502272,     1152,     2304, 0xf9d189f5
0,     503424,     503424,     1152,     2304, 0x0e0d88be
0,     504576,     504576,     1152,     2304, 0x6c1d7843
0,     505728,     505728,     1152,     2304, 0xd13b8a38
0,     506880,     506880,     1152,     2304, 0x9b8f773c
0,     508032,     508032,     1152,     2304, 0x9acd7309
0,     509184,     509184,     1152,     2304, 0x5e7d7d15
0,     510336,     510336,     1152,     2304, 0xf09d7640
0,     511488,     511488,     1152,     2304, 0xaebb718f
0,     512640,     512640,     1152,     2304, 0x0c8570f4
0,     513792,     513792,     1152,     2304, 0x3c93862c
0,     514944,     514944,     1152,     2304, 0xcee46696
0,     516096,     516096,     1152,     2304, 0x01ba7e20
0,     517248,     517248,     1152,     2304, 0x7fcb7a09
0,     518400,     518400,     1152,     2304, 0xddf18c14
0,     519552,     519552,     1152,     2304, 0xd2e97eeb
0,     520704,     520704,     1152,     2304, 0x514d8719
0,     521856,     521856,     1152,     2304, 0xe89279c9
0,     523008,     523008,     1152,     2304, 0x806d6a95
0,     524160,     524160,     1152,     2304, 0xbc7a8a60
0,     525312,     525312,     1152,     2304, 0x302f8fa8
0,     526464,     526464,     1152,     2304, 0xb136784c
0,     527616,     527616,     1152,     2304, 0x9b0f6aab
0,     528768,     528768,     1152,     2304, 0xd8e27582
0,     529920,     529920,     1152,     2304, 0xdaaf78b1
0,     531072,     531072,     1152,     2304, 0x65967f5f
0,     532224,     532224,     1152,     2304, 0x6f917aa4
0,     533376,     533376,     1152,     2304, 0x7f607444
0,     534528,     534528,     1152,     2304, 0xfd316f2c
0,     535680,     535680,     1152,     2304, 0x776e83c7
0,     536832,     536832,     1152,     2304, 0xb9c17e16
0,     537984,     537984,     1152,     2304, 0xdf287de8
0,     539136,     539136,     1152,     2304, 0xf33d96a3
0,     540288,     540288,     1152,     2304, 0xad216e5b
0,     541440,     541440,     1152,     2304, 0x4a328342
0,     542592,     542592,     1152,     2304, 0xcf3f8079
0,     543744,     543744,     1152,     2304, 0xb46f77b0
0,     544896,     544896,     1152,     2304, 0x3199713d
0,     546048,     546048,     1152,     2304, 0x5e667a0d
0,     547200,     547200,     1152,     2304, 0xa3047ae3
0,     548352,     548352,     1152,     2304, 0x9edf8594
0,     549504,     549504,     1152,     2304, 0xd16382d5
0,     550656,     550656,     1152,     2304, 0x6e838328
0,     551808,     551808,     1152,     2304, 0xa1f697c1
0,     552960,     552960,     1152,     2304, 0xefcc749c
0,     554112,     554112,     1152,     2304, 0x1f94839e
0,     555264,     555264,     1152,     2304, 0x429e7c5b
0,     556416,     556416,     1152,     2304, 0x9b59711c
0,     557568,     557568,     1152,     2304, 0xdac27323
0,     558720,     558720,     1152,     2304, 0xa4856d2b
0,     559872,     559872,     1152,     2304, 0x07a37498
0,     561024,     561024,     1152,     2304, 0xe1ce7512
0,     562176,     562176,     1152,     2304, 0x15e182c3
0,     563328,     563328,     1152,     2304, 0x0fa46b8c
0,     564480,     564480,     1152,     2304, 0xbdf07bfd
0,     565632,     565632,     1152,     2304, 0xe0238b2a
0,     566784,     566784,     1152,     2304, 0xab537267
0,     567936,     567936,     1152,     2304, 0xd46b75f3
0,     569088,     569088,     1152,     2304, 0xec73794b
0,     570240,     570240,     1152,     2304, 0x680580c1
0,     571392,     571392,     1152,     2304, 0x1ace8f6c
0,     572544,     572544,     1152,     2304, 0x19d583ac
0,     573696,     573696,     1152,     2304, 0x4b6b8105
0,     574848,     574848,     1152,     2304, 0x392a78b2
0,     576000,     576000,     1152,     2304, 0xd3916dad
0,     577152,     577152,     1152,     2304, 0x569c7a75
0,     578304,     578304,     1152,     2304, 0xf5ac814b
0,     579456,     579456,     1152,     2304, 0x18d77e98
0,     580608,     580608,     1152,     2304, 0x007074ce
0,     581760,     581760,     1152,     2304, 0x0fe38373
0,     582912,     582912,     1152,     2304, 0x5a967920
0,     584064,     584064,     1152,     2304, 0x22167501
0,     585216,     585216,     1152,     2304, 0xf0828cab
0,     586368,     586368,     1152,     2304, 0xaeec71b7
0,     587520,     587520,     1152,     2304, 0xc47b62ff
0,     588672,     588672,     1152,     2304, 0xab688478
0,     589824,     589824,     1152,     2304, 0xf35e7bd2
0,     590976,     590976,     1152,     2304, 0x9cff763e
0,     592128,     592128,     1152,     2304, 0x59568dc8
0,     593280,     593280,     1152,     2304, 0x51a278ac
0,     594432,     594432,     1152,     2304, 0xc08a6e68
0,     595584,     595584,     1152,     2304, 0xd3067ef4
0,     596736,     596736,     1152,     2304, 0x54767c49
0,     597888,     597888,     1152,     2304, 0xf8ff8386
0,     599040,     599040,     1152,     2304, 0xef267f63
0,     600192,     600192,     1152,     2304, 0xe2537cd9
0,     601344,     601344,     1152,     2304, 0x77a57680
0,     602496,     602496,     1152,     2304, 0x325c74ad
0,     603648,     603648,     1152,     2304, 0xd7fe87c4
0,     604800,     604800,     1152,     2304, 0x2e756310
0,     605952,     605952,     1152,     2304, 0x6a81796b
0,     607104,     607104,     1152,     2304, 0x2f057daf
0,     608256,     608256,     1152,     2304, 0xcd9f7c9d
0,     609408,     609408,     1152,     2304, 0xc91560a0
0,     610560,     610560,     1152,     2304, 0x962a91eb
0,     611712,     611712,     1152,     2304, 0xa0ff7416
0,     612864,     612864,     1152,     2304, 0xcb5c7dff
0,     614016,     614016,     1152,     2304, 0xd3527041
0,     615168,     615168,     1152,     2304, 0xc89d77c2
0,     616320,     616320,     1152,     2304, 0xe1ce7ccf
0,     617472,     617472,     1152,     2304, 0xe3417c4c
0,     618624,     618624,     1152,     2304, 0x3f1a7166
0,     619776,     619776,     1152,     2304, 0xcdcc7e23
0,     620928,     620928,     1152,     2304, 0x4e727e97
0,     622080,     622080,     1152,     2304, 0x53427ff1
0,     623232,     623232,     1152,     2304, 0x173f6ca9
0,     624384,     624384,     1152,     2304, 0x962887ec
0,     625536,     625536,     1152,     2304, 0xcbec67f4
0,     626688,     626688,     1152,     2304, 0x7a2c943d
0,     627840,     627840,     1152,     2304, 0x8b877570
0,     628992,     628992,     1152,     2304, 0xcf337323
0,     630144,     630144,     1152,     2304, 0x8c8682a4
0,     631296,     631296,     1152,     2304, 0x94c3753c
0,     632448,     632448,     1152,     2304, 0x86898d79
0,     633600,     633600,     1152,     2304, 0xdf667312
0,     634752,     634752,     1152,     2304, 0x062f8ba8
0,     635904,     635904,     1152,     2304, 0xa2c36f08
0,     637056,     637056,     1152,     2304, 0x5bca7358
0,     638208,     638208,     1152,     2304, 0x5648804d
0,     639360,     639360,     1152,     2304, 0xefac87c8
0,     640512,     640512,     1152,     2304, 0x66bf7dcf
0,     641664,     641664,     1152,     2304, 0x62ad73bc
0,     642816,     642816,     1152,     2304, 0x72fe630c
0,     643968,     643968,     1152,     2304, 0xeebe87da
0,     645120,     645120,     1152,     2304, 0x11c870cf
0,     646272,     646272,     1152,     2304, 0x18fb7c27
0,     647424,     647424,     1152,     2304, 0x39047145
0,     648576,     648576,     1152,     2304, 0xdcf07032
0,     649728,     649728,     1152,     2304, 0x61027c50
0,     650880,     650880,     1152,     2304, 0x6e2e89de
0,     652032,     652032,     1152,     2304, 0xc50c6d1d
0,     653184,     653184,     1152,     2304, 0xeed587ee
0,     654336,     654336,     1152,     2304, 0xe38269c7
0,     655488,     655488,     1152,     2304, 0xcf66806e
0,     656640,     656640,     1152,     2304, 0x2d3b7c1b
0,     657792,     657792,     1152,     2304, 0xa4127d48
0,     658944,     658944,     1152,     2304, 0x480b8325
0,     660096,     660096,     1152,     2304, 0xc1527221
0,     661248,     661248,     1152,     2304, 0x94c1769a
0,     662400,     662400,     1152,     2304, 0xcfb37271
0,     663552,     663552,     1152,     2304, 0x946d7a96
0,     664704,     664704,     1152,     2304, 0xdfc18e50
0,     665856,     665856,     1152,     2304, 0x10c48393
0,     667008,     667008,     1152,     2304, 0x58556b10
0,     668160,     668160,     1152,     2304, 0x997b7993
0,     669312,     669312,     1152,     2304, 0x4a787992
0,     670464,     670464,     1152,     2304, 0x11406c20
0,     671616,     671616,     1152,     2304, 0x04a4874a
0,     672768,     672768,     1152,     2304, 0xf3077164
0,     673920,     673920,     1152,     2304, 0x08ac80e3
0,     675072,     675072,     1152,     2304, 0x268370d0
0,     676224,     676224,     1152,     2304, 0x1d137778
0,     677376,     677376,     1152,     2304, 0xfa148e97
0,     678528,     678528,     1152,     2304, 0xec50717c
0,     679680,     679680,     1152,     2304, 0xcbf46b75
0,     680832,     680832,     1152,     2304, 0xd4168038
0,     681984,     681984,     1152,     2304, 0xdd9577f0
0,     683136,     683136,     1152,     2304, 0xc7077685
0,     684288,     684288,     1152,     2304, 0x34d25e91
0,     685440,     685440,     1152,     2304, 0x96537e6d
0,     686592,     686592,     1152,     2304, 0xb12e7940
0,     687744,     687744,     1152,     2304, 0x861d64c0
0,     688896,     688896,     1152,     2304, 0xa2bc64ed
0,     690048,     690048,     1152,     2304, 0x0c5f8261
0,     691200,     691200,     1152,     2304, 0x540584ff
0,     692352,     692352,     1152,     2304, 0xe8328b09
0,     693504,     693504,     1152,     2304, 0x1e777079
0,     694656,     694656,     1152,     2304, 0x453483b4
0,     695808,     695808,     1152,     2304, 0x1cab7a1e
0,     696960,     696960,     1152,     2304, 0xcb37856d
0,     698112,     698112,     1152,     2304, 0x5a4883ed
0,     699264,     699264,     1152,     2304, 0xd1f27cbf
0,     700416,     700416,     1152,     2304, 0x0d377a4d
0,     701568,     701568,     1152,     2304, 0x264e76df
0,     702720,     702720,     1152,     2304, 0x2a68771e
0,     703872,     703872,     1152,     2304, 0xcb317a31
0,     705024,     705024,     1152,     2304, 0xfc5d7a27
0,     706176,     706176,     1152,     2304, 0x6e067d96
0,     707328,     707328,     1152,     2304, 0x0c538560
0,     708480,     708480,     1152,     2304, 0xfbad717a
0,     709632,     709632,     1152,     2304, 0xf9fc7608
0,     710784,     710784,     1152,     2304, 0xb1817c8f
0,     711936,     711936,     1152,     2304, 0x57c37f82
0,     713088,     713088,     1152,     2304, 0x8cac8356
0,     714240,     714240,     1152,     2304, 0x97108186
0,     715392,     715392,     1152,     2304, 0x095d81bb
0,     716544,     716544,     1152,     2304, 0x475f6b2b
0,     717696,     717696,     1152,     2304, 0xdf7c8cc5
0,     718848,     718848,     1152,     2304, 0x979c77be
0,     720000,     720000,     1152,     2304, 0x56a7844b
0,     721152,     721152,     1152,     2304, 0x7ee46b21
0,     722304,     722304,     1152,     2304, 0x05b67220
0,     723456,     723456,     1152,     2304, 0x25787252
0,     724608,     724608,     1152,     2304, 0x8ad278ad
0,     725760,     725760,     1152,     2304, 0x67bd722e
0,     726912,     726912,     1152,     2304, 0x204f77be
0,     728064,     728064,     1152,     2304, 0x82d27ae2
0,     729216,     729216,     1152,     2304, 0x23fa82e4
0,     730368,     730368,     1152,     2304, 0xa9cf8159
0,     731520,     731520,     1152,     2304, 0x13f08749
0,     732672,     732672,     1152,     2304, 0xf84f71b5
0,     733824,     733824,     1152,     2304, 0x1cb777c8
0,     734976,     734976,     1152,     2304, 0x11236722
0,     736128,     736128,     1152,     2304, 0x10197cac
0,     737280,     737280,     1152,     2304, 0xbd417e65
0,     738432,     738432,     1152,     2304, 0x9a1c7d05
0,     739584,     739584,     1152,     2304, 0x4c3a85de
0,     740736,     740736,     1152,     2304, 0x03816eb7
0,     741888,     741888,     1152,     2304, 0x80186e6c
0,     743040,     743040,     1152,     2304, 0x5c097928
0,     744192,     744192,     1152,     2304, 0x94aa823d
0,     745344,     745344,     1152,     2304, 0xa1c27f04
0,     746496,     746496,     1152,     2304, 0x6ddb74a9
0,     747648,     747648,     1152,     2304, 0x5ea67901
0,     748800,     748800,     1152,     2304, 0xd710742d
0,     749952,     749952,     1152,     2304, 0xf8c27add
0,     751104,     751104,     1152,     2304, 0xf1717011
0,     752256,     752256,     1152,     2304, 0xb59072d0
0,     753408,     753408,     1152,     2304, 0xc8dc84a7
0,     754560,     754560,     1152,     2304, 0x33116737
0,     755712,     755712,     1152,     2304, 0x86216bdd
0,     756864,     756864,     1152,     2304, 0xa2f87866
0,     758016,     758016,     1152,     2304, 0x5d77771e
0,     759168,     759168,     1152,     2304, 0x5d8c77fd
0,     760320,     760320,     1152,     2304, 0x23cc89cb
0,     761472,     761472,     1152,     2304, 0x334e7407
0,     762624,     762624,     1152,     2304, 0x01c976ff
0,     763776,     763776,     1152,     2304, 0x3a3b7b15
0,     764928,     764928,     1152,     2304, 0xfa427de9
0,     766080,     766080,     1152,     2304, 0xbeaa7c91
0,     767232,     767232,     1152,     2304, 0xd6988b31
0,     768384,     768384,     1152,     2304, 0x4db47f80
0,     769536,     769536,     1152,     2304, 0xea687d9e
0,     770688,     770688,     1152,     2304, 0x1a6281ce
0,     771840,     771840,     1152,     2304, 0xe1958003
0,     772992,     772992,     1152,     2304, 0xb4ae7c5e
0,     774144,     774144,     1152,     2304, 0x28827c8a
0,     775296,     775296,     1152,     2304, 0x1fb88b25
0,     776448,     776448,     1152,     2304, 0x588d71e8
0,     777600,     777600,     1152,     2304, 0x68227c34
0,     778752,     778752,     1152,     2304, 0xee4d73e8
0,     779904,     779904,     1152,     2304, 0x69287c6d
0,     781056,     781056,     1152,     2304, 0xbb04926a
0,     782208,     782208,     1152,     2304, 0x89456cec
0,     783360,     783360,     1152,     2304, 0xabe18992
0,     784512,     784512,     1152,     2304, 0x50cc7f6c
0,     785664,     785664,     1152,     2304, 0x6d7270be
0,     786816,     786816,     1152,     2304, 0x664c6fef
0,     787968,     787968,     1152,     2304, 0x7f7982f3
0,     789120,     789120,     1152,     2304, 0x6ca170e9
0,     790272,     790272,     1152,     2304, 0x36437d5b
0,     791424,     791424,     1152,     2304, 0xfd2380e8
0,     792576,     792576,     1152,     2304, 0x2e3c6e9f
0,     793728,     793728,     1152,     2304, 0xc8427f3f
0,     794880,     794880,     1152,     2304, 0x962a79ad
0,     796032,     796032,     1152,     2304, 0xc9597c8b
0,     797184,     797184,     1152,     2304, 0x899580bb
0,     798336,     798336,     1152,     2304, 0x2d179dff
0,     799488,     799488,     1152,     2304, 0x4ac1707c
0,     800640,     800640,     1152,     2304, 0x32ea7e95
0,     801792,     801792,     1152,     2304, 0x265e9a2d
0,     802944,     802944,     1152,     2304, 0x1c6484d0
0,     804096,     804096,     1152,     2304, 0x39ae6884
0,     805248,     805248,     1152,     2304, 0x82ed7bc5
0,     806400,     806400,     1152,     2304, 0x556b7b3c
0,     807552,     807552,     1152,     2304, 0xb7f778dd
0,     808704,     808704,     1152,     2304, 0x74447d55
0,     809856,     809856,     1152,     2304, 0x0c66861e
0,     811008,     811008,     1152,     2304, 0x15ba7932
0,     812160,     812160,     1152,     2304, 0xb19170fc
0,     813312,     813312,     1152,     2304, 0x19d37551
0,     814464,     814464,     1152,     2304, 0xdc529142
0,     815616,     815616,     1152,     2304, 0xf2637e77
0,     816768,     816768,     1152,     2304, 0xd065944b
0,     817920,     817920,     1152,     2304, 0x22878123
0,     819072,     819072,     1152,     2304, 0xc21a8bf7
0,     820224,     820224,     1152,     2304, 0x2e3582dc
0,     821376,     821376,     1152,     2304, 0xd42f7987
0,     822528,     822528,     1152,     2304, 0x69b88236
0,     823680,     823680,     1152,     2304, 0x7c988f90
0,     824832,     824832,     1152,     2304, 0x2cd66ded
0,     825984,     825984,     1152,     2304, 0x3e65828b
0,     827136,     827136,     1152,     2304, 0x7e9871c9
0,     828288,     828288,     1152,     2304, 0xf1f2806b
0,     829440,     829440,     1152,     2304, 0xf5087c7b
0,     830592,     830592,     1152,     2304, 0x62b98097
0,     831744,     831744,     1152,     2304, 0xec457c43
0,     832896,     832896,     1152,     2304, 0x87af87a6
0,     834048,     834048,     1152,     2304, 0x97cc757d
0,     835200,     835200,     1152,     2304, 0x08ca76bd
0,     836352,     836352,     1152,     2304, 0x14ae7cbd
0,     837504,     837504,     1152,     2304, 0x1f79709a
0,     838656,     838656,     1152,     2304, 0x17948207
0,     839808,     839808,     1152,     2304, 0x16ee7228
0,     840960,     840960,     1152,     2304, 0x76cc82d7
0,     842112,     842112,     1152,     2304, 0x8f327a8e
0,     843264,     843264,     1152,     2304, 0x14ee7756
0,     844416,     844416,     1152,     2304, 0x15996d2f
0,     845568,     845568,     1152,     2304, 0x4c707d5c
0,     846720,     846720,     1152,     2304, 0x268c6fee
0,     847872,     847872,     1152,     2304, 0x6d838c76
0,     849024,     849024,     1152,     2304, 0xafa17e64
0,     850176,     850176,     1152,     2304, 0xb6546e66
0,     851328,     851328,     1152,     2304, 0x945d8b9f
0,     852480,     852480,     1152,     2304, 0x5bfb7446
0,     853632,     853632,     1152,     2304, 0xae6086f9
0,     854784,     854784,     1152,     2304, 0xa01380cd
0,     855936,     855936,     1152,     2304, 0x06f0828f
0,     857088,     857088,     1152,     2304, 0x0ae07176
0,     858240,     858240,     1152,     2304, 0x66f07522
0,     859392,     859392,     1152,     2304, 0x44018106
0,     860544,     860544,     1152,     2304, 0x8cd283da
0,     861696,     861696,     1152,     2304, 0x14257f45
0,     862848,     862848,     1152,     2304, 0x04979537
0,     864000,     864000,     1152,     2304, 0x8b5f797c
0,     865152,     865152,     1152,     2304, 0x12d67493
0,     866304,     866304,     1152,     2304, 0xc8886a25
0,     867456,     867456,     1152,     2304, 0x614b803a
0,     868608,     868608,     1152,     2304, 0x75667d35
0,     869760,     869760,     1152,     2304, 0xe42c7b00
0,     870912,     870912,     1152,     2304, 0x37787927
0,     872064,     872064,     1152,     2304, 0x85db8409
0,     873216,     873216,     1152,     2304, 0x823b822c
0,     874368,     874368,     1152,     2304, 0xa1658479
0,     875520,     875520,     1152,     2304, 0xdbe58ff7
0,     876672,     876672,     1152,     2304, 0x725175e2
0,     877824,     877824,     1152,     2304, 0xb2ae7741
0,     878976,     878976,     1152,     2304, 0x4de169e4
0,     880128,     880128,     1152,     2304, 0x3cb18530
0,     881280,     881280,     1152,     2304, 0x5a0c5e7b
0,     882432,     882432,     1152,     2304, 0x4e1f68b6
0,     883584,     883584,     1152,     2304, 0x9a0c7525
0,     884736,     884736,     1152,     2304, 0x86ae6a04
0,     885888,     885888,     1152,     2304, 0xf508877c
0,     887040,     887040,     1152,     2304, 0x29746d7c
0,     888192,     888192,     1152,     2304, 0x24078edb
0,     889344,     889344,     1152,     2304, 0x4f9784d2
0,     890496,     890496,     1152,     2304, 0x24186e95
0,     891648,     891648,     1152,     2304, 0xd1927b28
0,     892800,     892800,     1152,     2304, 0xc77283d5
0,     893952,     893952,     1152,     2304, 0xc0ad73f8
0,     895104,     895104,     1152,     2304, 0x0de78524
0,     896256,     896256,     1152,     2304, 0x8b0061dc
0,     897408,     897408,     1152,     2304, 0x37c77ad6
0,     898560,     898560,     1152,     2304, 0x5eae7410
0,     899712,     899712,     1152,     2304, 0x72d97ab5
0,     900864,     900864,     1152,     2304, 0x1afd8745
0,     902016,     902016,     1152,     2304, 0xe30b7c9b
0,     903168,     903168,     1152,     2304, 0xe86480b3
0,     904320,     904320,     1152,     2304, 0xb9c77a4e
0,     905472,     905472,     1152,     2304, 0x64508f2a
0,     906624,     906624,     1152,     2304, 0x839a74ed
0,     907776,     907776,     1152,     2304, 0x12147a5d
0,     908928,     908928,     1152,     2304, 0x33b07d3b
0,     910080,     910080,     1152,     2304, 0x65e67731
0,     911232,     911232,     1152,     2304, 0x8d1c8191
0,     912384,     912384,     1152,     2304, 0xada17701
0,     913536,     913536,     1152,     2304, 0x49d47f6c
0,     914688,     914688,     1152,     2304, 0x5df97989
0,     915840,     915840,     1152,     2304, 0x0db17ad9
0,     916992,     916992,     1152,     2304, 0x0d3281d7
0,     918144,     918144,     1152,     2304, 0x2503704f
0,     919296,     919296,     1152,     2304, 0xdf7c73d0
0,     920448,     920448,     1152,     2304, 0x93dd737c
0,     921600,     921600,     1152,     2304, 0x48ed5740
0,     922752,     922752,     1152,     2304, 0x6d477eaf
0,     923904,     923904,     1152,     2304, 0xe72373a1
0,     925056,     925056,     1152,     2304, 0x7d3e7e2e
0,     926208,     926208,     1152,     2304, 0x0d167743
0,     927360,     927360,     1152,     2304, 0xc2d97f6c
0,     928512,     928512,     1152,     2304, 0xc66175a0
0,     929664,     929664,     1152,     2304, 0xd0127475
0,     930816,     930816,     1152,     2304, 0xdbf57801
0,     931968,     931968,     1152,     2304, 0x52b47a8e
0,     933120,     933120,     1152,     2304, 0xc96b80c5
0,     934272,     934272,     1152,     2304, 0x070c76cf
0,     935424,     935424,     1152,     2304, 0x2aa07ee2
0,     936576,     936576,     1152,     2304, 0x04059074
0,     937728,     937728,     1152,     2304, 0x228f6def
0,     938880,     938880,     1152,     2304, 0x927893a8
0,     940032,     940032,     1152,     2304, 0x581a87df
0,     941184,     941184,     1152,     2304, 0x0d3f653c
0,     942336,     942336,     1152,     2304, 0xc0e775f3
0,     943488,     943488,     1152,     2304, 0x41d98473
0,     944640,     944640,     1152,     2304, 0x68fb775a
0,     945792,     945792,     1152,     2304, 0x81e0810e
0,     946944,     946944,     1152,     2304, 0xf35790d3
0,     948096,     948096,     1152,     2304, 0xc1468c45
0,     949248,     949248,     1152,     2304, 0x6949796a
0,     950400,     950400,     1152,     2304, 0xa0bb7dcd
0,     951552,     951552,     1152,     2304, 0x50af8424
0,     952704,     952704,     1152,     2304, 0x449b7d37
0,     953856,     953856,     1152,     2304, 0xcf2779a8
0,     955008,     955008,     1152,     2304, 0x069d894e
0,     956160,     956160,     1152,     2304, 0x41bd7334
0,     957312,     957312,     1152,     2304, 0x0dfd8c05
0,     958464,     958464,     1152,     2304, 0x2ce27b9d
0,     959616,     959616,     1152,     2304, 0x422875b5
0,     960768,     960768,     1152,     2304, 0xd5297389
0,     961920,     961920,     1152,     2304, 0x49ed8668
0,     963072,     963072,     1152,     2304, 0x2a9a810b
0,     964224,     964224,     1152,     2304, 0x5a3f7b43
0,     965376,     965376,     1152,     2304, 0x32087c12
0,     966528,     966528,     1152,     2304, 0x759c7bba
0,     967680,     967680,     1152,     2304, 0x5b26823b
0,     968832,     968832,     1152,     2304, 0xeeb872ef
0,     969984,     969984,     1152,     2304, 0x6eb0869d
0,     971136,     971136,     1152,     2304, 0x4b3e764f
0,     972288,     972288,     1152,     2304, 0x30a66fdb
0,     973440,     973440,     1152,     2304, 0x958374ff
0,     974592,     974592,     1152,     2304, 0x411b71cc
0,     975744,     975744,     1152,     2304, 0x80136759
0,     976896,     976896,     1152,     2304, 0x05ed6793
0,     978048,     978048,     1152,     2304, 0x48f18827
0,     979200,     979200,     1152,     2304, 0xb40d7866
0,     980352,     980352,     1152,     2304, 0xcad18c4a
0,     981504,     981504,     1152,     2304, 0x9ad68582
0,     982656,     982656,     1152,     2304, 0x3ad17fce
0,     983808,     983808,     1152,     2304, 0x824b7af6
0,     984960,     984960,     1152,     2304, 0xcc9d894f
0,     986112,     986112,     1152,     2304, 0x46167a70
0,     987264,     987264,     1152,     2304, 0x2479872a
0,     988416,     988416,     1152,     2304, 0x58cb72a5
0,     989568,     989568,     1152,     2304, 0x01957747
0,     990720,     990720,     1152,     2304, 0x6df172cb
0,     991872,     991872,     1152,     2304, 0x9ebd7ed9
0,     993024,     993024,     1152,     2304, 0x89436a53
0,     994176,     994176,     1152,     2304, 0xcce78433
0,     995328,     995328,     1152,     2304, 0x1b7a70f2
0,     996480,     996480,     1152,     2304, 0x530584d7
0,     997632,     997632,     1152,     2304, 0xda158aa9
0,     998784,     998784,     1152,     2304, 0xe85e7b90
0,     999936,     999936,     1152,     2304, 0xa8ac8176
0,    1001088,    1001088,     1152,     2304, 0xe43578a9
0,    1002240,    1002240,     1152,     2304, 0x9ecc7c30
0,    1003392,    1003392,     1152,     2304, 0x1cbd8591
0,    1004544,    1004544,     1152,     2304, 0x84917bd9
0,    1005696,    1005696,     1152,     2304, 0xea8477e4
0,    1006848,    1006848,     1152,     2304, 0xf50c7ea1
0,    1008000,    1008000,     1152,     2304, 0xc85e76e7
0,    1009152,    1009152,     1152,     2304, 0xa5148768
0,    1010304,    1010304,     1152,     2304, 0x2bd5846a
0,    1011456,    1011456,     1152,     2304, 0x1cd88641
0,    1012608,    1012608,     1152,     2304, 0x04b883c5
0,    1013760,    1013760,     1152,     2304, 0x5bf1719b
0,    1014912,    1014912,     1152,     2304, 0x0abe777c
0,    1016064,    1016064,     1152,     2304, 0xc74a7f7f
0,    1017216,    1017216,     1152,     2304, 0xd36a724b
0,    1018368,    1018368,     1152,     2304, 0x4ae67e9e
0,    1019520,    1019520,     1152,     2304, 0xfb6173a0
0,    1020672,    1020672,     1152,     2304, 0x31d77e19
0,    1021824,    1021824,     1152,     2304, 0x6153767d
0,    1022976,    1022976,     1152,     2304, 0xe40d84e4
0,    1024128,    1024128,     1152,     2304, 0xc8ef71e2
0,    1025280,    1025280,     1152,     2304, 0xdeca81be
0,    1026432,    1026432,     1152,     2304, 0x75da85df
0,    1027584,    1027584,     1152,     2304, 0x6c8e71bd
0,    1028736,    1028736,     1152,     2304, 0x6f8576a4
0,    1029888,    1029888,     1152,     2304, 0xe6637b71
0,    1031040,    1031040,     1152,     2304, 0xddfe8866
0,    1032192,    1032192,     1152,     2304, 0xa08578a5
0,    1033344,    1033344,     1152,     2304, 0x72af7873
0,    1034496,    1034496,     1152,     2304, 0xb550615c
0,    1035648,    1035648,     1152,     2304, 0x9ef87d28
0,    1036800,    1036800,     1152,     2304, 0xe30d83bf
0,    1037952,    1037952,     1152,     2304, 0xf030818c
0,    1039104,    1039104,     1152,     2304, 0x1e23896c
0,    1040256,    1040256,     1152,     2304, 0xf4c87180
0,    1041408,    1041408,     1152,     2304, 0xe34181aa
0,    1042560,    1042560,     1152,     2304, 0x660681cb
0,    1043712,    1043712,     1152,     2304, 0x7ebb87fc
0,    1044864,    1044864,     1152,     2304, 0xa8305eeb
0,    1046016,    1046016,     1152,     2304, 0xea898906
0,    1047168,    1047168,     1152,     2304, 0x342b6c13
0,    1048320,    1048320,     1152,     2304, 0x7fd18372
0,    1049472,    1049472,     1152,     2304, 0x965c7377
0,    1050624,    1050624,     1152,     2304, 0xb53b70b3
0,    1051776,    1051776,     1152,     2304, 0xd54884d1
0,    1052928,    1052928,     1152,     2304, 0x546d77ac
0,    1054080,    1054080,     1152,     2304, 0xd7a77dc7
0,    1055232,    1055232,     1152,     2304, 0x4b0e7c5c
0,    1056384,    1056384,     1152,     2304, 0x346d7026
0,    1057536,    1057536,     1152,     2304, 0x3f346e81
0,    1058688,    1058688,     1152,     2304, 0x3f167098
0,    1059840,    1059840,     1152,     2304, 0x1c857987
0,    1060992,    1060992,     1152,     2304, 0xf9317c16
0,    1062144,    1062144,     1152,     2304, 0x25ea82c4
0,    1063296,    1063296,     1152,     2304, 0x2b0f90bb
0,    1064448,    1064448,     1152,     2304, 0x999668db
0,    1065600,    1065600,     1152,     2304, 0x9a0676da
0,    1066752,    1066752,     1152,     2304, 0x97a87172
0,    1067904,    1067904,     1152,     2304, 0x323d7ace
0,    1069056,    1069056,     1152,     2304, 0x1b538baa
0,    1070208,    1070208,     1152,     2304, 0xeb208b72
0,    1071360,    1071360,     1152,     2304, 0x36c69152
0,    1072512,    1072512,     1152,     2304, 0x570c7bac
0,    1073664,    1073664,     1152,     2304, 0xd7287c72
0,    1074816,    1074816,     1152,     2304, 0xc4d78776
0,    1075968,    1075968,     1152,     2304, 0xdcbb7735
0,    1077120,    1077120,     1152,     2304, 0x08066d78
0,    1078272,    1078272,     1152,     2304, 0x5cb96bad
0,    1079424,    1079424,     1152,     2304, 0x30d58180
0,    1080576,    1080576,     1152,     2304, 0x3ac96b87
0,    1081728,    1081728,     1152,     2304, 0x1fc878d2
0,    1082880,    1082880,     1152,     2304, 0x2c7c85d4
0,    1084032,    1084032,     1152,     2304, 0x6c307caa
0,    1085184,    1085184,     1152,     2304, 0x647b6d6e
0,    1086336,    1086336,     1152,     2304, 0xfbef7e51
0,    1087488,    1087488,     1152,     2304, 0x27867bd7
0,    1088640,    1088640,     1152,     2304, 0xa2b875b1
0,    1089792,    1089792,     1152,     2304, 0xc7dd73fb
0,    1090944,    1090944,     1152,     2304, 0x717e79e9
0,    1092096,    1092096,     1152,     2304, 0xfecb710d
0,    1093248,    1093248,     1152,     2304, 0xa5308333
0,    1094400,    1094400,     1152,     2304, 0x92fe6b77
0,    1095552,    1095552,     1152,     2304, 0x7db17ad6
0,    1096704,    1096704,     1152,     2304, 0x1248786d
0,    1097856,    1097856,     1152,     2304, 0xf3647a8a
0,    1099008,    1099008,     1152,     2304, 0x7b2173f0
0,    1100160,    1100160,     1152,     2304, 0xfd1f7a3c
0,    1101312,    1101312,     1152,     2304, 0x09e57f3e
0,    1102464,    1102464,     1152,     2304, 0x13d7798d
0,    1103616,    1103616,     1152,     2304, 0x7d4d758a
0,    1104768,    1104768,     1152,     2304, 0xdf1a80be
0,    1105920,    1105920,     1152,     2304, 0xb91b7cb9
0,    1107072,    1107072,     1152,     2304, 0x102e73ba
0,    1108224,    1108224,     1152,     2304, 0x8dce8428
0,    1109376,    1109376,     1152,     2304, 0xdf9070f6
0,    1110528,    1110528,     1152,     2304, 0x27d77bb4
0,    1111680,    1111680,     1152,     2304, 0x2f8a8579
0,    1112832,    1112832,     1152,     2304, 0xd1e27204
0,    1113984,    1113984,     1152,     2304, 0x4f087920
0,    1115136,    1115136,     1152,     2304, 0x69f58306
0,    1116288,    1116288,     1152,     2304, 0xfc7378b0
0,    1117440,    1117440,     1152,     2304, 0x8b167d89
0,    1118592,    1118592,     1152,     2304, 0x0c867235
0,    1119744,    1119744,     1152,     2304, 0xc3126e09
0,    1120896,    1120896,     1152,     2304, 0x7d097d89
0,    1122048,    1122048,     1152,     2304, 0x73dc664e
0,    1123200,    1123200,     1152,     2304, 0xdc247a0a
0,    1124352,    1124352,     1152,     2304, 0xaa8d7f2f
0,    1125504,    1125504,     1152,     2304, 0x9a1d744b
0,    1126656,    1126656,     1152,     2304, 0xd9e87475
0,    1127808,    1127808,     1152,     2304, 0xf6f182ab
0,    1128960,    1128960,     1152,     2304, 0x4937706b
0,    1130112,    1130112,     1152,     2304, 0x837189b1
0,    1131264,    1131264,     1152,     2304, 0xd565975d
0,    1132416,    1132416,     1152,     2304, 0xc6156a56
0,    1133568,    1133568,     1152,     2304, 0xcd9c8107
0,    1134720,    1134720,     1152,     2304, 0x1f868400
0,    1135872,    1135872,     1152,     2304, 0xeddb71e0
0,    1137024,    1137024,     1152,     2304, 0x5fa2782a
0,    1138176,    1138176,     1152,     2304, 0x9b076e22
0,    1139328,    1139328,     1152,     2304, 0x90027ba7
0,    1140480,    1140480,     1152,     2304, 0x40a481fd
0,    1141632,    1141632,     1152,     2304, 0x240873bf
0,    1142784,    1142784,     1152,     2304, 0x28cd7d8e
0,    1143936,    1143936,     1152,     2304, 0x5d4287b0
0,    1145088,    1145088,     1152,     2304, 0xf9567c4b
0,    1146240,    1146240,     1152,     2304, 0x67dd924a
0,    1147392,    1147392,     1152,     2304, 0x33d37b4c
0,    1148544,    1148544,     1152,     2304, 0x37316d0b
0,    1149696,    1149696,     1152,     2304, 0x43a877dc
0,    1150848,    1150848,     1152,     2304, 0x44fc90bc
0,    1152000,    1152000,     1152,     2304, 0x90f5774c
0,    1153152,    1153152,     1152,     2304, 0x106e85a0
0,    1154304,    1154304,     1152,     2304, 0xb78b7f83
0,    1155456,    1155456,     1152,     2304, 0x3c3a77af
0,    1156608,    1156608,     1152,     2304, 0x7a5f7282
0,    1157760,    1157760,     1152,     2304, 0x164d891a
0,    1158912,    1158912,     1152,     2304, 0x930a7194
0,    1160064,    1160064,     1152,     2304, 0xb2628013
0,    1161216,    1161216,     1152,     2304, 0x3adf7e1c
0,    1162368,    1162368,     1152,     2304, 0x48627c45
0,    1163520,    1163520,     1152,     2304, 0xa3367cca
0,    1164672,    1164672,     1152,     2304, 0x9cf77248
0,    1165824,    1165824,     1152,     2304, 0x75a86acb
0,    1166976,    1166976,     1152,     2304, 0x75487698
0,    1168128,    1168128,     1152,     2304, 0xd65b8389
0,    1169280,    1169280,     1152,     2304, 0xb71d84b5
0,    1170432,    1170432,     1152,     2304, 0xdca87e42
0,    1171584,    1171584,     1152,     2304, 0x44dd7d72
0,    1172736,    1172736,     1152,     2304, 0xb29465da
0,    1173888,    1173888,     1152,     2304, 0x88ed8930
0,    1175040,    1175040,     1152,     2304, 0xabdd8096
0,    1176192,    1176192,     1152,     2304, 0xe5f57653
0,    1177344,    1177344,     1152,     2304, 0x7c777984
0,    1178496,    1178496,     1152,     2304, 0x631d7deb
0,    1179648,    1179648,     1152,     2304, 0x70d36e1f
0,    1180800,    1180800,     1152,     2304, 0x412c802b
0,    1181952,    1181952,     1152,     2304, 0xacc281c1
0,    1183104,    1183104,     1152,     2304, 0x569d86a8
0,    1184256,    1184256,     1152,     2304, 0x5c69743f
0,    1185408,    1185408,     1152,     2304, 0x29637794
0,    1186560,    1186560,     1152,     2304, 0x0d1b7a4f
0,    1187712,    1187712,     1152,     2304, 0xfc6978a6
0,    1188864,    1188864,     1152,     2304, 0x9b178987
0,    1190016,    1190016,     1152,     2304, 0xe436714a
0,    1191168,    1191168,     1152,     2304, 0x783a7b6e
0,    1192320,    1192320,     1152,     2304, 0x6ff16f4e
0,    1193472,    1193472,     1152,     2304, 0x9fd582cc
0,    1194624,    1194624,     1152,     2304, 0xff0d6bc9
0,    1195776,    1195776,     1152,     2304, 0x6f4975d5
0,    1196928,    1196928,     1152,     2304, 0x94a77a90
0,    1198080,    1198080,     1152,     2304, 0x764f80db
0,    1199232,    1199232,     1152,     2304, 0x68e88782
0,    1200384,    1200384,     1152,     2304, 0x91a378e8
0,    1201536,    1201536,     1152,     2304, 0x29f26903
0,    1202688,    1202688,     1152,     2304, 0xc3b684d4
0,    1203840,    1203840,     1152,     2304, 0x7d95921f
0,    1204992,    1204992,     1152,     2304, 0x876a7ded
0,    1206144,    1206144,     1152,     2304, 0x0fbe7ee8
0,    1207296,    1207296,     1152,     2304, 0x7d0f78c5
0,    1208448,    1208448,     1152,     2304, 0xce906ba8
0,    1209600,    1209600,     1152,     2304, 0xd281747b
0,    1210752,    1210752,     1152,     2304, 0xec38811b
0,    1211904,    1211904,     1152,     2304, 0x8170810a
0,    1213056,    1213056,     1152,     2304, 0x4d858ba2
0,    1214208,    1214208,     1152,     2304, 0x8c798662
0,    1215360,    1215360,     1152,     2304, 0x23a8879b
0,    1216512,    1216512,     1152,     2304, 0x9d0c8894
0,    1217664,    1217664,     1152,     2304, 0xf07c681f
0,    1218816,    1218816,     1152,     2304, 0x03ab6f7a
0,    1219968,    1219968,     1152,     2304, 0x88c170c2
0,    1221120,    1221120,     1152,     2304, 0xeb977bf3
0,    1222272,    1222272,     1152,     2304, 0x33b6774f
0,    1223424,    1223424,     1152,     2304, 0x534c776e
0,    1224576,    1224576,     1152,     2304, 0x33c4826a
0,    1225728,    1225728,     1152,     2304, 0xdb9878d8
0,    1226880,    1226880,     1152,     2304, 0xeffd789b
0,    1228032,    1228032,     1152,     2304, 0x2cc9862f
0,    1229184,    1229184,     1152,     2304, 0x9bf18131
0,    1230336,    1230336,     1152,     2304, 0xfa078144
0,    1231488,    1231488,     1152,     2304, 0x922885d2
0,    1232640,    1232640,     1152,     2304, 0x29ad7796
0,    1233792,    1233792,     1152,     2304, 0x62766f3f
0,    1234944,    1234944,     1152,     2304, 0x72a873a5
0,    1236096,    1236096,     1152,     2304, 0x65176e4d
0,    1237248,    1237248,     1152,     2304, 0x75447cbd
0,    1238400,    1238400,     1152,     2304, 0x83528e32
0,    1239552,    1239552,     1152,     2304, 0x0c758531
0,    1240704,    1240704,     1152,     2304, 0x4a5c7a84
0,    1241856,    1241856,     1152,     2304, 0xd5937648
0,    1243008,    1243008,     1152,     2304, 0xef5c8983
0,    1244160,    1244160,     1152,     2304, 0x24b281d0
0,    1245312,    1245312,     1152,     2304, 0xc0af7017
0,    1246464,    1246464,     1152,     2304, 0xf1cc7145
0,    1247616,    1247616,     1152,     2304, 0x7ddb7a3b
0,    1248768,    1248768,     1152,     2304, 0xd2e57692
0,    1249920,    1249920,     1152,     2304, 0x7abc61d6
0,    1251072,    1251072,     1152,     2304, 0x44a68338
0,    1252224,    1252224,     1152,     2304, 0x9cad810e
0,    1253376,    1253376,     1152,     2304, 0xbf3a7f51
0,    1254528,    1254528,     1152,     2304, 0x52ac815e
0,    1255680,    1255680,     1152,     2304, 0xdf327e10
0,    1256832,    1256832,     1152,     2304, 0x797c867b
0,    1257984,    1257984,     1152,     2304, 0x685b79ec
0,    1259136,    1259136,     1152,     2304, 0x60267b82
0,    1260288,    1260288,     1152,     2304, 0xe70e7fd4
0,    1261440,    1261440,     1152,     2304, 0xaf197a22
0,    1262592,    1262592,     1152,     2304, 0xf5e57075
0,    1263744,    1263744,     1152,     2304, 0xa86f8197
0,    1264896,    1264896,     1152,     2304, 0x922c7b3d
0,    1266048,    1266048,     1152,     2304, 0x8e3b7929
0,    1267200,    1267200,     1152,     2304, 0x816f862d
0,    1268352,    1268352,     1152,     2304, 0xc09c761a
0,    1269504,    1269504,     1152,     2304, 0xf1cd9010
0,    1270656,    1270656,     1152,     2304, 0xcf5c72d8
0,    1271808,    1271808,     1152,     2304, 0x0e607a38
0,    1272960,    1272960,     1152,     2304, 0x6cb0819c
0,    1274112,    1274112,     1152,     2304, 0x9e2880aa
0,    1275264,    1275264,     1152,     2304, 0xb46f69f9
0,    1276416,    1276416,     1152,     2304, 0xbc807eab
0,    1277568,    1277568,     1152,     2304, 0x91237cf9
0,    1278720,    1278720,     1152,     2304, 0xb6bf82b6
0,    1279872,    1279872,     1152,     2304, 0xfcd58daf
0,    1281024,    1281024,     1152,     2304, 0x53b176f4
0,    1282176,    1282176,     1152,     2304, 0xc79d7507
0,    1283328,    1283328,     1152,     2304, 0x810677b2
0,    1284480,    1284480,     1152,     2304, 0x13148737
0,    1285632,    1285632,     1152,     2304, 0x2eb5755a
0,    1286784,    1286784,     1152,     2304, 0x5bec5cd2
0,    1287936,    1287936,     1152,     2304, 0x66c68d47
0,    1289088,    1289088,     1152,     2304, 0x55d18770
0,    1290240,    1290240,     1152,     2304, 0x13997def
0,    1291392,    1291392,     1152,     2304, 0x23cd8437
0,    1292544,    1292544,     1152,     2304, 0x5cd07942
0,    1293696,    1293696,     1152,     2304, 0x43ab6b4c
0,    1294848,    1294848,     1152,     2304, 0xc55788ec
0,    1296000,    1296000,     1152,     2304, 0x6b69788e
0,    1297152,    1297152,     1152,     2304, 0xcacb8fea
0,    1298304,    1298304,     1152,     2304, 0x83407ebd
0,    1299456,    1299456,     1152,     2304, 0x998275f3
0,    1300608,    1300608,     1152,     2304, 0x0ca76dcc
0,    1301760,    1301760,     1152,     2304, 0xa1ff7c6a
0,    1302912,    1302912,     1152,     2304, 0x4a597683
0,    1304064,    1304064,     1152,     2304, 0xc8e57f16
0,    1305216,    1305216,     1152,     2304, 0x376d82fb
0,    1306368,    1306368,     1152,     2304, 0x489b8164
0,    1307520,    1307520,     1152,     2304, 0xece27f77
0,    1308672,    1308672,     1152,     2304, 0x4c197e8f
0,    1309824,    1309824,     1152,     2304, 0x6eb07739
0,    1310976,    1310976,     1152,     2304, 0xef628145
0,    1312128,    1312128,     1152,     2304, 0x549d6f12
0,    1313280,    1313280,     1152,     2304, 0xbe566b70
0,    1314432,    1314432,     1152,     2304, 0x2bde87d3
0,    1315584,    1315584,     1152,     2304, 0x0ffd7175
0,    1316736,    1316736,     1152,     2304, 0x47d28a8b
0,    1317888,    1317888,     1152,     2304, 0x6f6c718e
0,    1319040,    1319040,     1152,     2304, 0x665e7937
0,    1320192,    1320192,     1152,     2304, 0x73538e8d
0,    1321344,    1321344,     1152,     2304, 0x56167d71
0,    1322496,    1322496,     1152,     2304, 0x3d0278ed
0,    1323648,    1323648,     1152,     2304, 0x9baf7a51
0,    1324800,    1324800,     1152,     2304, 0x8c058105
0,    1325952,    1325952,     1152,     2304, 0x2b9573ca
0,    1327104,    1327104,     1152,     2304, 0x4a2271a1
0,    1328256,    1328256,     1152,     2304, 0x3d5276f6
0,    1329408,    1329408,     1152,     2304, 0x43c076cd
0,    1330560,    1330560,     1152,     2304, 0x4fec8929
0,    1331712,    1331712,     1152,     2304, 0xaa7167ec
0,    1332864,    1332864,     1152,     2304, 0x39ff7ea5
0,    1334016,    1334016,     1152,     2304, 0x2dd58348
0,    1335168,    1335168,     1152,     2304, 0x03fc8782
0,    1336320,    1336320,     1152,     2304, 0x55a4649c
0,    1337472,    1337472,     1152,     2304, 0x71407067
0,    1338624,    1338624,     1152,     2304, 0x3b667ce6
0,    1339776,    1339776,     1152,     2304, 0xb12e81aa
0,    1340928,    1340928,     1152,     2304, 0xc1646ee3
0,    1342080,    1342080,     1152,     2304, 0x6b55884f
0,    1343232,    1343232,     1152,     2304, 0x292382b5
0,    1344384,    1344384,     1152,     2304, 0x18f97854
0,    1345536,    1345536,     1152,     2304, 0x47a480be
0,    1346688,    1346688,     1152,     2304, 0xe0857b16
0,    1347840,    1347840,     1152,     2304, 0xe3368462
0,    1348992,    1348992,     1152,     2304, 0xced17ae8
0,    1350144,    1350144,     1152,     2304, 0x4020796d
0,    1351296,    1351296,     1152,     2304, 0x26797fd0
0,    1352448,    1352448,     1152,     2304, 0x0e087554
0,    1353600,    1353600,     1152,     2304, 0xf8868040
0,    1354752,    1354752,     1152,     2304, 0x3f0a7784
0,    1355904,    1355904,     1152,     2304, 0xbe517d5e
0,    1357056,    1357056,     1152,     2304, 0xed0b66bc
0,    1358208,    1358208,     1152,     2304, 0x79b96d63
0,    1359360,    1359360,     1152,     2304, 0x1ab4793a
0,    1360512,    1360512,     1152,     2304, 0xd2db7f7d
0,    1361664,    1361664,     1152,     2304, 0x91017992
0,    1362816,    1362816,     1152,     2304, 0xf88f7cb9
0,    1363968,    1363968,     1152,     2304, 0x0cc98309
0,    1365120,    1365120,     1152,     2304, 0x38b77cb8
0,    1366272,    1366272,     1152,     2304, 0x0cb185f9
0,    1367424,    1367424,     1152,     2304, 0xc4a27824
0,    1368576,    1368576,     1152,     2304, 0x1ce97618
0,    1369728,    1369728,     1152,     2304, 0x1423976e
0,    1370880,    1370880,     1152,     2304, 0xdbb781b2
0,    1372032,    1372032,     1152,     2304, 0x156d71d3
0,    1373184,    1373184,     1152,     2304, 0xce228625
0,    1374336,    1374336,     1152,     2304, 0x318072f3
0,    1375488,    1375488,     1152,     2304, 0x464b77a1
0,    1376640,    1376640,     1152,     2304, 0x0204854d
0,    1377792,    1377792,     1152,     2304, 0x498c8373
0,    1378944,    1378944,     1152,     2304, 0xfe1a6e23
0,    1380096,    1380096,     1152,     2304, 0x705284d0
0,    1381248,    1381248,     1152,     2304, 0x91848980
0,    1382400,    1382400,     1152,     2304, 0x259098c5
0,    1383552,    1383552,     1152,     2304, 0x52b07c02
0,    1384704,    1384704,     1152,     2304, 0x017289f6
0,    1385856,    1385856,     1152,     2304, 0xb87687bf
0,    1387008,    1387008,     1152,     2304, 0x72de7843
0,    1388160,    1388160,     1152,     2304, 0x3daf8939
0,    1389312,    1389312,     1152,     2304, 0x0dfb763c
0,    1390464,    1390464,     1152,     2304, 0xc3017408
0,    1391616,    1391616,     1152,     2304, 0x73f27f14
0,    1392768,    1392768,     1152,     2304, 0x1c517541
0,    1393920,    1393920,     1152,     2304, 0xf390748b
0,    1395072,    1395072,     1152,     2304, 0xe6ac71f3
0,    1396224,    1396224,     1152,     2304, 0x6277862d
0,    1397376,    1397376,     1152,     2304, 0x923d6794
0,    1398528,    1398528,     1152,     2304, 0x320a7f20
0,    1399680,    1399680,     1152,     2304, 0x12f07a09
0,    1400832,    1400832,     1152,     2304, 0xf9568b14
0,    1401984,    1401984,     1152,     2304, 0x4d787fea
0,    1403136,    1403136,     1152,     2304, 0x57c5861a
0,    1404288,    1404288,     1152,     2304, 0x826b7cc7
0,    1405440,    1405440,     1152,     2304, 0x7d056a94
0,    1406592,    1406592,     1152,     2304, 0xbf3e8a60
0,    1407744,    1407744,     1152,     2304, 0x5e518cab
0,    1408896,    1408896,     1152,     2304, 0x64e7794b
0,    1410048,    1410048,     1152,     2304, 0x9c9569ac
0,    1411200,    1411200,     1152,     2304, 0xde167582
0,    1412352,    1412352,     1152,     2304, 0xdd8f78b1
0,    1413504,    1413504,     1152,     2304, 0xec577e60
0,    1414656,    1414656,     1152,     2304, 0x06877aa4
0,    1415808,    1415808,     1152,     2304, 0xb5157742
0,    1416960,    1416960,     1152,     2304, 0xf9be6f2b
0,    1418112,    1418112,     1152,     2304, 0xf95784c7
0,    1419264,    1419264,     1152,     2304, 0x5aec7e15
0,    1420416,    1420416,     1152,     2304, 0x666e7ce9
0,    1421568,    1421568,     1152,     2304, 0xa76393a7
0,    1422720,    1422720,     1152,     2304, 0xd1bb6d5c
0,    1423872,    1423872,     1152,     2304, 0x48d88144
0,    1425024,    1425024,     1152,     2304, 0xa7df8177
0,    1426176,    1426176,     1152,     2304, 0x906476b1
0,    1427328,    1427328,     1152,     2304, 0x9f46723d
0,    1428480,    1428480,     1152,     2304, 0xa6d37a0c
0,    1429632,    1429632,     1152,     2304, 0x73e57be2
0,    1430784,    1430784,     1152,     2304, 0x666e8594
0,    1431936,    1431936,     1152,     2304, 0xd4b481d7
0,    1433088,    1433088,     1152,     2304, 0xfced8427
0,    1434240,    1434240,     1152,     2304, 0x743999bd
0,    1435392,    1435392,     1152,     2304, 0x71dd759b
0,    1436544,    1436544,     1152,     2304, 0x54a2849e
0,    1437696,    1437696,     1152,     2304, 0x07377f58
0,    1438848,    1438848,     1152,     2304, 0xfd8f721a
0,    1440000,    1440000,     1152,     2304, 0x4d917422
0,    1441152,    1441152,     1152,     2304, 0xaaa46e2b
0,    1442304,    1442304,     1152,     2304, 0x49e57597
0,    1443456,    1443456,     1152,     2304, 0x29337511
0,    1444608,    1444608,     1152,     2304, 0xdfee84c2
0,    1445760,    1445760,     1152,     2304, 0x57266b8c
0,    1446912,    1446912,     1152,     2304, 0x5bf27cfc
0,    1448064,    1448064,     1152,     2304, 0xdc4b8b29
0,    1449216,    1449216,     1152,     2304, 0xf49e7466
0,    1450368,    1450368,     1152,     2304, 0xf1d975f3
0,    1451520,    1451520,     1152,     2304, 0xc863774d
0,    1452672,    1452672,     1152,     2304, 0x5fab80c0
0,    1453824,    1453824,     1152,     2304, 0x19548d6f
0,    1454976,    1454976,     1152,     2304, 0x165983ac
0,    1456128,    1456128,     1152,     2304, 0x2d658203
0,    1457280,    1457280,     1152,     2304, 0x717678b2
0,    1458432,    1458432,     1152,     2304, 0x1ed26dae
0,    1459584,    1459584,     1152,     2304, 0xecef7975
0,    1460736,    1460736,     1152,     2304, 0xcd2b804c
0,    1461888,    1461888,     1152,     2304, 0xf4597f97
0,    1463040,    1463040,     1152,     2304, 0x904b75cd
0,    1464192,    1464192,     1152,     2304, 0x6b508374
0,    1465344,    1465344,     1152,     2304, 0xb6b4791f
0,    1466496,    1466496,     1152,     2304, 0xce6d7501
0,    1467648,    1467648,     1152,     2304, 0x99ec8bac
0,    1468800,    1468800,     1152,     2304, 0x65d772b7
0,    1469952,    1469952,     1152,     2304, 0xbc2762ff
0,    1471104,    1471104,     1152,     2304, 0xf8a48378
0,    1472256,    1472256,     1152,     2304, 0x18057ad4
0,    1473408,    1473408,     1152,     2304, 0x89af753f
0,    1474560,    1474560,     1152,     2304, 0x95a48fc5
0,    1475712,    1475712,     1152,     2304, 0x8b7576af
0,    1476864,    1476864,     1152,     2304, 0xcdcb6e67
0,    1478016,    1478016,     1152,     2304, 0xe02a7ff3
0,    1479168,    1479168,     1152,     2304, 0x4f0a7d48
0,    1480320,    1480320,     1152,     2304, 0x9bab8287
0,    1481472,    1481472,     1152,     2304, 0xc1fa8063
0,    1482624,    1482624,     1152,     2304, 0x410e7dd7
0,    1483776,    1483776,     1152,     2304, 0xd4de777f
0,    1484928,    1484928,     1152,     2304, 0x403675ac
0,    1486080,    1486080,     1152,     2304, 0x4d7687c5
0,    1487232,    1487232,     1152,     2304, 0x10c6650d
0,    1488384,    1488384,     1152,     2304, 0xd7e67b69
0,    1489536,    1489536,     1152,     2304, 0x42b97fae
0,    1490688,    1490688,     1152,     2304, 0xa8b57a9f
0,    1491840,    1491840,     1152,     2304, 0xc24960a0
0,    1492992,    1492992,     1152,     2304, 0x16198fec
0,    1494144,    1494144,     1152,     2304, 0x29297416
0,    1495296,    1495296,     1152,     2304, 0x129b7d00
0,    1496448,    1496448,     1152,     2304, 0xa9677141
0,    1497600,    1497600,     1152,     2304, 0x86a779bf
0,    1498752,    1498752,     1152,     2304, 0xa3857dce
0,    1499904,    1499904,     1152,     2304, 0xee6d7c4d
0,    1501056,    1501056,     1152,     2304, 0x97127166
0,    1502208,    1502208,     1152,     2304, 0x6e407c25
0,    1503360,    1503360,     1152,     2304, 0x82a07c9a
0,    1504512,    1504512,     1152,     2304, 0xf62381ef
0,    1505664,    1505664,     1152,     2304, 0x2ab86ca8
0,    1506816,    1506816,     1152,     2304, 0x97ca87ed
0,    1507968,    1507968,     1152,     2304, 0x6b4868f2
0,    1509120,    1509120,     1152,     2304, 0xdb2a953c
0,    1510272,    1510272,     1152,     2304, 0x061e7770
0,    1511424,    1511424,     1152,     2304, 0xae067224
0,    1512576,    1512576,     1152,     2304, 0x88a282a3
0,    1513728,    1513728,     1152,     2304, 0x4e14743e
0,    1514880,    1514880,     1152,     2304, 0x3dbd8b7b
0,    1516032,    1516032,     1152,     2304, 0xcae57312
0,    1517184,    1517184,     1152,     2304, 0xf9038ca7
0,    1518336,    1518336,     1152,     2304, 0x03ec6f07
0,    1519488,    1519488,     1152,     2304, 0x8c297359
0,    1520640,    1520640,     1152,     2304, 0x8af1804c
0,    1521792,    1521792,     1152,     2304, 0xf30087c8
0,    1522944,    1522944,     1152,     2304, 0x21127cd1
0,    1524096,    1524096,     1152,     2304, 0xc66772bd
0,    1525248,    1525248,     1152,     2304, 0x05e6630b
0,    1526400,    1526400,     1152,     2304, 0x020688d9
0,    1527552,    1527552,     1152,     2304, 0xee3873cd
0,    1528704,    1528704,     1152,     2304, 0xf263782b
0,    1529856,    1529856,     1152,     2304, 0xf8877144
0,    1531008,    1531008,     1152,     2304, 0xce1e6f33
0,    1532160,    1532160,     1152,     2304, 0xf0457e4f
0,    1533312,    1533312,     1152,     2304, 0xde9387df
0,    1534464,    1534464,     1152,     2304, 0x5df86d1d
0,    1535616,    1535616,     1152,     2304, 0x949087ef
0,    1536768,    1536768,     1152,     2304, 0xdbd269c6
0,    1537920,    1537920,     1152,     2304, 0xd530806e
0,    1539072,    1539072,     1152,     2304, 0x80027b1d
0,    1540224,    1540224,     1152,     2304, 0xccb47c48
0,    1541376,    1541376,     1152,     2304, 0x4f2f8326
0,    1542528,    1542528,     1152,     2304, 0xfe046f23
0,    1543680,    1543680,     1152,     2304, 0x5939759b
0,    1544832,    1544832,     1152,     2304, 0x83147073
0,    1545984,    1545984,     1152,     2304, 0xc9e77b95
0,    1547136,    1547136,     1152,     2304, 0x702d8e51
0,    1548288,    1548288,     1152,     2304, 0x5f5f8492
0,    1549440,    1549440,     1152,     2304, 0x10116d0e
0,    1550592,    1550592,     1152,     2304, 0xb8587894
0,    1551744,    1551744,     1152,     2304, 0x2b357892
0,    1552896,    1552896,     1152,     2304, 0x160e6c20
0,    1554048,    1554048,     1152,     2304, 0x0534874b
0,    1555200,    1555200,     1152,     2304, 0xde687064
0,    1556352,    1556352,     1152,     2304, 0x91ef7fe4
0,    1557504,    1557504,     1152,     2304, 0x077473ce
0,    1558656,    1558656,     1152,     2304, 0x1be77777
0,    1559808,    1559808,     1152,     2304, 0xaada9096
0,    1560960,    1560960,     1152,     2304, 0xeac96f7e
0,    1562112,    1562112,     1152,     2304, 0xe9ca6e72
0,    1563264,    1563264,     1152,     2304, 0xd0868038
0,    1564416,    1564416,     1152,     2304, 0x689176f1
0,    1565568,    1565568,     1152,     2304, 0xdfdb7684
0,    1566720,    1566720,     1152,     2304, 0x83c55d92
0,    1567872,    1567872,     1152,     2304, 0x77587b70
0,    1569024,    1569024,     1152,     2304, 0x60937941
0,    1570176,    1570176,     1152,     2304, 0xb00267bd
0,    1571328,    1571328,     1152,     2304, 0xd0a166eb
0,    1572480,    1572480,     1152,     2304, 0x88718162
0,    1573632,    1573632,     1152,     2304, 0xf9e084ff
0,    1574784,    1574784,     1152,     2304, 0x2ddc8c08
0,    1575936,    1575936,     1152,     2304, 0x843a7178
0,    1577088,    1577088,     1152,     2304, 0x1d9784b4
0,    1578240,    1578240,     1152,     2304, 0x98aa7b1d
0,    1579392,    1579392,     1152,     2304, 0x583e846e
0,    1580544,    1580544,     1152,     2304, 0xa6d284ec
0,    1581696,    1581696,     1152,     2304, 0xa0147cbf
0,    1582848,    1582848,     1152,     2304, 0xb3bf7b4b
0,    1584000,    1584000,     1152,     2304, 0x7f8b78dd
0,    1585152,    1585152,     1152,     2304, 0xd3fb761f
0,    1586304,    1586304,     1152,     2304, 0x78147c2f
0,    1587456,    1587456,     1152,     2304, 0x5e747b26
0,    1588608,    1588608,     1152,     2304, 0x0d8e7d96
0,    1589760,    1589760,     1152,     2304, 0x73728362
0,    1590912,    1590912,     1152,     2304, 0x7c54707b
0,    1592064,    1592064,     1152,     2304, 0xb89c7806
0,    1593216,    1593216,     1152,     2304, 0x5f0f7a91
0,    1594368,    1594368,     1152,     2304, 0x35217e84
0,    1595520,    1595520,     1152,     2304, 0xb3798553
0,    1596672,    1596672,     1152,     2304, 0xd8377e8a
0,    1597824,    1597824,     1152,     2304, 0x339181ba
0,    1598976,    1598976,     1152,     2304, 0xbe196b2c
0,    1600128,    1600128,     1152,     2304, 0xdc708cc4
0,    1601280,    1601280,     1152,     2304, 0x649c74c1
0,    1602432,    1602432,     1152,     2304, 0xac128649
0,    1603584,    1603584,     1152,     2304, 0xcd266a22
0,    1604736,    1604736,     1152,     2304, 0xdfde7023
0,    1605888,    1605888,     1152,     2304, 0xf92d7450
0,    1607040,    1607040,     1152,     2304, 0x9ce379ac
0,    1608192,    1608192,     1152,     2304, 0xee5e712e
0,    1609344,    1609344,     1152,     2304, 0xa12676c0
0,    1610496,    1610496,     1152,     2304, 0x4cee7be1
0,    1611648,    1611648,     1152,     2304, 0x90c881e5
0,    1612800,    1612800,     1152,     2304, 0xa6a78158
0,    1613952,    1613952,     1152,     2304, 0xd248864a
0,    1615104,    1615104,     1152,     2304, 0x7a8972b4
0,    1616256,    1616256,     1152,     2304, 0x5c8a75cb
0,    1617408,    1617408,     1152,     2304, 0x07606722
0,    1618560,    1618560,     1152,     2304, 0xbf497aae
0,    1619712,    1619712,     1152,     2304, 0xffab7d66
0,    1620864,    1620864,     1152,     2304, 0xefdc7d05
0,    1622016,    1622016,     1152,     2304, 0x02d686dd
0,    1623168,    1623168,     1152,     2304, 0x852e6eb6
0,    1624320,    1624320,     1152,     2304, 0x3445706b
0,    1625472,    1625472,     1152,     2304, 0x04677828
0,    1626624,    1626624,     1152,     2304, 0x5d5c833c
0,    1627776,    1627776,     1152,     2304, 0xf4277e06
0,    1628928,    1628928,     1152,     2304, 0xcece72ab
0,    1630080,    1630080,     1152,     2304, 0x10837aff
0,    1631232,    1631232,     1152,     2304, 0x0265762b
0,    1632384,    1632384,     1152,     2304, 0x0fc979de
0,    1633536,    1633536,     1152,     2304, 0xeecf7010
0,    1634688,    1634688,     1152,     2304, 0x313975cd
0,    1635840,    1635840,     1152,     2304, 0xccce84a7
0,    1636992,    1636992,     1152,     2304, 0x823e6935
0,    1638144,    1638144,     1152,     2304, 0xa0606ade
0,    1639296,    1639296,     1152,     2304, 0x2c2d7866
0,    1640448,    1640448,     1152,     2304, 0x3a5a781e
0,    1641600,    1641600,     1152,     2304, 0xdaf677fd
0,    1642752,    1642752,     1152,     2304, 0x79d88aca
0,    1643904,    1643904,     1152,     2304, 0x3db27308
0,    1645056,    1645056,     1152,     2304, 0x627175ff
0,    1646208,    1646208,     1152,     2304, 0x40697b16
0,    1647360,    1647360,     1152,     2304, 0x40e47ee7
0,    1648512,    1648512,     1152,     2304, 0x6a6a7d91
0,    1649664,    1649664,     1152,     2304, 0x8d3e8a32
0,    1650816,    1650816,     1152,     2304, 0x576a817e
0,    1651968,    1651968,     1152,     2304, 0x86287f9b
0,    1653120,    1653120,     1152,     2304, 0x43e081ce
0,    1654272,    1654272,     1152,     2304, 0xe44b8003
0,    1655424,    1655424,     1152,     2304, 0xfb237f5b
0,    1656576,    1656576,     1152,     2304, 0x28967c8a
0,    1657728,    1657728,     1152,     2304, 0x97478829
0,    1658880,    1658880,     1152,     2304, 0x615570e8
0,    1660032,    1660032,     1152,     2304, 0xa52c7d34
0,    1661184,    1661184,     1152,     2304, 0xb55473e8
0,    1662336,    1662336,     1152,     2304, 0x08a07d6c
0,    1663488,    1663488,     1152,     2304, 0x2eed916a
0,    1664640,    1664640,     1152,     2304, 0x8ce36cec
0,    1665792,    1665792,     1152,     2304, 0x775e8992
0,    1666944,    1666944,     1152,     2304, 0x99ad816b
0,    1668096,    1668096,     1152,     2304, 0x697a70be
0,    1669248,    1669248,     1152,     2304, 0x38c46cf2
0,    1670400,    1670400,     1152,     2304, 0xf9d681f4
0,    1671552,    1671552,     1152,     2304, 0xa7336fea
0,    1672704,    1672704,     1152,     2304, 0xd2a97e59
0,    1673856,    1673856,     1152,     2304, 0x02b880e9
0,    1675008,    1675008,     1152,     2304, 0x2a486e9e
0,    1676160,    1676160,     1152,     2304, 0x5f197c43
0,    1677312,    1677312,     1152,     2304, 0x266679ad
0,    1678464,    1678464,     1152,     2304, 0x7cfd7c8a
0,    1679616,    1679616,     1152,     2304, 0x43b681bb
0,    1680768,    1680768,     1152,     2304, 0x63309cff
0,    1681920,    1681920,     1152,     2304, 0x80f36f7d
0,    1683072,    1683072,     1152,     2304, 0xcead7b98
0,    1684224,    1684224,     1152,     2304, 0x8475992f
0,    1685376,    1685376,     1152,     2304, 0x746782d2
0,    1686528,    1686528,     1152,     2304, 0x2b486982
0,    1687680,    1687680,     1152,     2304, 0xc80c7fc2
0,    1688832,    1688832,     1152,     2304, 0x148c7c3b
0,    1689984,    1689984,     1152,     2304, 0x49c477df
0,    1691136,    1691136,     1152,     2304, 0x1bf97c56
0,    1692288,    1692288,     1152,     2304, 0x89a38221
0,    1693440,    1693440,     1152,     2304, 0xcb757a31
0,    1694592,    1694592,     1152,     2304, 0xd3bb72fa
0,    1695744,    1695744,     1152,     2304, 0xe5727650
0,    1696896,    1696896,     1152,     2304, 0x5d4e9242
0,    1698048,    1698048,     1152,     2304, 0x29207f75
0,    1699200,    1699200,     1152,     2304, 0x5b1d954a
0,    1700352,    1700352,     1152,     2304, 0xa2888223
0,    1701504,    1701504,     1152,     2304, 0xe31d8af7
0,    1702656,    1702656,     1152,     2304, 0x29ee82dd
0,    1703808,    1703808,     1152,     2304, 0x4b1d7887
0,    1704960,    1704960,     1152,     2304, 0xc0308236
0,    1706112,    1706112,     1152,     2304, 0xaed68e92
0,    1707264,    1707264,     1152,     2304, 0xbc1171e9
0,    1708416,    1708416,     1152,     2304, 0x379f828b
0,    1709568,    1709568,     1152,     2304, 0x83de72c8
0,    1710720,    1710720,     1152,     2304, 0xb11a806a
0,    1711872,    1711872,     1152,     2304, 0x7ac17e7a
0,    1713024,    1713024,     1152,     2304, 0x031b7d9a
0,    1714176,    1714176,     1152,     2304, 0xebc97c43
0,    1715328,    1715328,     1152,     2304, 0x914e86a7
0,    1716480,    1716480,     1152,     2304, 0x88e2747e
0,    1717632,    1717632,     1152,     2304, 0x153076bc
0,    1718784,    1718784,     1152,     2304, 0xdacc7ebb
0,    1719936,    1719936,     1152,     2304, 0x0905709a
0,    1721088,    1721088,     1152,     2304, 0x13358109
0,    1722240,    1722240,     1152,     2304, 0x18227228
0,    1723392,    1723392,     1152,     2304, 0x318082d7
0,    1724544,    1724544,     1152,     2304, 0x8aec7a8e
0,    1725696,    1725696,     1152,     2304, 0x8c9c7755
0,    1726848,    1726848,     1152,     2304, 0xdba46e2f
0,    1728000,    1728000,     1152,     2304, 0xd47d7f5a
0,    1729152,    1729152,     1152,     2304, 0xeb1370ec
0,    1730304,    1730304,     1152,     2304, 0xf6d68e74
0,    1731456,    1731456,     1152,     2304, 0x3d5a7c66
0,    1732608,    1732608,     1152,     2304, 0x264b6d68
0,    1733760,    1733760,     1152,     2304, 0x7cde8b9f
0,    1734912,    1734912,     1152,     2304, 0xba467347
0,    1736064,    1736064,     1152,     2304, 0x921987f7
0,    1737216,    1737216,     1152,     2304, 0x9c6c7fce
0,    1738368,    1738368,     1152,     2304, 0x02cb828f
0,    1739520,    1739520,     1152,     2304, 0x3b427077
0,    1740672,    1740672,     1152,     2304, 0x6f9c7523
0,    1741824,    1741824,     1152,     2304, 0xef688204
0,    1742976,    1742976,     1152,     2304, 0x263782dc
0,    1744128,    1744128,     1152,     2304, 0xb6ca7e46
0,    1745280,    1745280,     1152,     2304, 0xb0929636
0,    1746432,    1746432,     1152,     2304, 0x60a97b7a
0,    1747584,    1747584,     1152,     2304, 0xcf037690
0,    1748736,    1748736,     1152,     2304, 0xc9046a25
0,    1749888,    1749888,     1152,     2304, 0xbf247f3c
0,    1751040,    1751040,     1152,     2304, 0x71e77d34
0,    1752192,    1752192,     1152,     2304, 0x96ce7a01
0,    1753344,    1753344,     1152,     2304, 0xf9b07a27
0,    1754496,    1754496,     1152,     2304, 0x984b830b
0,    1755648,    1755648,     1152,     2304, 0xff11822b
0,    1756800,    1756800,     1152,     2304, 0xb0a18578
0,    1757952,    1757952,     1152,     2304, 0xa9d98ef8
0,    1759104,    1759104,     1152,     2304, 0x4f9076e1
0,    1760256,    1760256,     1152,     2304, 0xb63c7742
0,    1761408,    1761408,     1152,     2304, 0xb4c06ae2
0,    1762560,    1762560,     1152,     2304, 0x41738531
0,    1763712,    1763712,     1152,     2304, 0x55125e7b
